<?xml version="1.0" encoding="utf-8"?>
<!-- Generator: Adobe Illustrator 24.3.0, SVG Export Plug-In . SVG Version: 6.00 Build 0)  -->
<svg version="1.1" id="Layer_1" xmlns="http://www.w3.org/2000/svg" xmlns:xlink="http://www.w3.org/1999/xlink" x="0px" y="0px"
	 viewBox="0 0 48 48" style="enable-background:new 0 0 48 48;" xml:space="preserve">
<g>
	<path d="M19.8,16.4c0-0.5-0.4-0.9-0.9-0.9h-3.1c-4.2,0-7.7,3.1-8.3,7.1L7.3,23H0.9C0.4,23,0,23.5,0,24c0,0.5,0.4,0.9,0.9,0.9h6.3
		l0.1,0.4c0.7,4.1,4.2,7.1,8.3,7.1h3.2c0.5,0,0.9-0.4,0.9-0.9V16.4z M18,30.7h-2.2c-3.7-0.1-6.6-3.1-6.6-6.7
		c-0.1-1.7,0.6-3.3,1.8-4.6c1.3-1.3,3-2.1,4.9-2.1H18V30.7z"/>
	<path d="M29.2,32.5h3.1c4.2,0,7.7-3.1,8.3-7.1l0.1-0.4h6.4c0.5,0,0.9-0.4,0.9-0.9c0-0.5-0.4-0.9-0.9-0.9h-6.3l-0.1-0.4
		c-0.7-4.1-4.2-7.1-8.3-7.1h-3.2c-0.5,0-0.9,0.4-0.9,0.9v2.9h-3.8c-0.5,0-0.9,0.4-0.9,0.9c0,0.5,0.4,0.9,0.9,0.9h3.8v5.7h-3.8
		c-0.5,0-0.9,0.4-0.9,0.9c0,0.5,0.4,0.9,0.9,0.9h3.8v2.9C28.2,32.1,28.6,32.5,29.2,32.5z M30,17.3h2.2c3.7,0,6.6,3,6.6,6.6
		c0,3.7-3,6.6-6.6,6.6H30V17.3z"/>
</g>
</svg>
