<?xml version="1.0" encoding="utf-8"?>
<!-- Generator: Adobe Illustrator 24.3.0, SVG Export Plug-In . SVG Version: 6.00 Build 0)  -->
<svg version="1.1" id="Layer_1" xmlns="http://www.w3.org/2000/svg" xmlns:xlink="http://www.w3.org/1999/xlink" x="0px" y="0px"
	 viewBox="0 0 48 48" style="enable-background:new 0 0 48 48;" xml:space="preserve">
<style type="text/css">
	.st0{fill-rule:evenodd;clip-rule:evenodd;}
</style>
<g>
	<path class="st0" d="M46.3,48c0.4,0,0.8-0.2,1-0.5c0.3-0.3,0.4-0.6,0.3-1C46.9,37.3,41.4,30,33,26.8l-1.7-0.6l1.4-1.1
		c3.4-2.7,5.2-6.7,5.2-11c-0.1-7.2-6-13.3-13.2-13.7c-3.9-0.2-7.5,1.2-10.3,3.8c-2.8,2.6-4.3,6.2-4.3,10.1c0,4.2,1.9,8.2,5.2,10.8
		l1.4,1.1L15,26.8C6.6,30,1.1,37.3,0.3,46.5c0,0.4,0.1,0.7,0.3,1c0.3,0.3,0.6,0.5,1,0.5h7.4c0.8,0,1.4-0.6,1.4-1.4s-0.6-1.4-1.4-1.4
		H5.2c-0.5,0-1.3,0.2-1.6-0.1c-0.3-0.4,0.1-1.3,0.2-1.7C6,34.1,14,28.1,24,28.1s18,6,20.3,15.2c0.1,0.4,0.4,1.3,0.1,1.7
		c-0.3,0.4-1.1,0.2-1.6,0.2h-3.9c-0.8,0-1.4,0.6-1.4,1.4s0.6,1.4,1.4,1.4H46.3z M24,25.2c-2.9,0-5.7-1.1-7.8-3.2
		c-2.5-2.5-3.7-6.1-3.1-9.6c0.7-4.5,4.4-8.2,9-9c3.6-0.6,7.1,0.5,9.6,3.1c2.5,2.5,3.7,6,3.1,9.6c-0.7,4.5-4.4,8.2-9,9
		C25.2,25.1,24.6,25.2,24,25.2z"/>
	<path class="st0" d="M30.4,37.8l-0.7,0.7c-0.3-0.3-0.6-0.4-1-0.4c-0.4,0-0.7,0.1-1,0.4l-5,5L20.1,41c-0.5-0.5-1.5-0.5-2,0l0,0
		c-0.5,0.6-0.5,1.5,0,2l3.5,3.5c0.6,0.6,1.5,0.6,2,0l6-6c0.3-0.3,0.4-0.6,0.4-1s-0.1-0.7-0.4-1L30.4,37.8L30.4,37.8z"/>
</g>
</svg>
