<?xml version="1.0" encoding="utf-8"?>
<!-- Generator: Adobe Illustrator 23.0.1, SVG Export Plug-In . SVG Version: 6.00 Build 0)  -->
<svg version="1.1" id="Layer_1" xmlns="http://www.w3.org/2000/svg" xmlns:xlink="http://www.w3.org/1999/xlink" x="0px" y="0px"
	 viewBox="0 0 343 600" style="enable-background:new 0 0 343 600;" xml:space="preserve">
<style type="text/css">
	.st0{fill:#D2E0B7;}
	.st1{clip-path:url(#SVGID_2_);fill:#D2E0B7;}
	.st2{clip-path:url(#SVGID_2_);fill:#D1DFB6;}
	.st3{clip-path:url(#SVGID_2_);fill:#D0DEB5;}
	.st4{clip-path:url(#SVGID_2_);fill:#CFDDB5;}
	.st5{clip-path:url(#SVGID_2_);fill:#CEDCB4;}
	.st6{clip-path:url(#SVGID_2_);fill:#CDDBB3;}
	.st7{clip-path:url(#SVGID_2_);fill:#CDDAB2;}
	.st8{clip-path:url(#SVGID_2_);fill:#CCD9B1;}
	.st9{clip-path:url(#SVGID_2_);fill:#CBD8B1;}
	.st10{clip-path:url(#SVGID_2_);fill:#CAD7B0;}
	.st11{clip-path:url(#SVGID_2_);fill:#C9D6AF;}
	.st12{clip-path:url(#SVGID_2_);fill:#C8D5AE;}
	.st13{clip-path:url(#SVGID_2_);fill:#C7D4AE;}
	.st14{clip-path:url(#SVGID_2_);fill:#C6D3AD;}
	.st15{clip-path:url(#SVGID_2_);fill:#C5D2AC;}
	.st16{clip-path:url(#SVGID_2_);fill:#C4D1AB;}
	.st17{clip-path:url(#SVGID_2_);fill:#C3D0AA;}
	.st18{clip-path:url(#SVGID_2_);fill:#C3CFAA;}
	.st19{clip-path:url(#SVGID_2_);fill:#C2CEA9;}
	.st20{clip-path:url(#SVGID_2_);fill:#C1CDA8;}
	.st21{clip-path:url(#SVGID_2_);fill:#C0CCA7;}
	.st22{clip-path:url(#SVGID_2_);fill:#BFCBA6;}
	.st23{clip-path:url(#SVGID_2_);fill:#BECAA6;}
	.st24{clip-path:url(#SVGID_2_);fill:#BDC9A5;}
	.st25{clip-path:url(#SVGID_2_);fill:#BCC8A4;}
	.st26{clip-path:url(#SVGID_2_);fill:#BBC7A3;}
	.st27{clip-path:url(#SVGID_2_);fill:#BAC6A3;}
	.st28{clip-path:url(#SVGID_2_);fill:#B9C5A2;}
	.st29{clip-path:url(#SVGID_2_);fill:#B8C4A1;}
	.st30{clip-path:url(#SVGID_2_);fill:#B8C3A0;}
	.st31{clip-path:url(#SVGID_2_);fill:#B7C29F;}
	.st32{clip-path:url(#SVGID_2_);fill:#B6C19F;}
	.st33{clip-path:url(#SVGID_2_);fill:#B5C09E;}
	.st34{clip-path:url(#SVGID_2_);fill:#B4BF9D;}
	.st35{clip-path:url(#SVGID_2_);fill:#B3BE9C;}
	.st36{clip-path:url(#SVGID_2_);fill:#B2BD9B;}
	.st37{clip-path:url(#SVGID_2_);fill:#B1BC9B;}
	.st38{clip-path:url(#SVGID_2_);fill:#B0BB9A;}
	.st39{clip-path:url(#SVGID_2_);fill:#AFBA99;}
	.st40{clip-path:url(#SVGID_2_);fill:#AEB998;}
	.st41{clip-path:url(#SVGID_2_);fill:#AEB898;}
	.st42{clip-path:url(#SVGID_2_);fill:#ADB797;}
	.st43{clip-path:url(#SVGID_2_);fill:#ACB696;}
	.st44{clip-path:url(#SVGID_2_);fill:#ABB595;}
	.st45{clip-path:url(#SVGID_2_);fill:#AAB494;}
	.st46{clip-path:url(#SVGID_2_);fill:#A9B394;}
	.st47{clip-path:url(#SVGID_2_);fill:#A8B293;}
	.st48{clip-path:url(#SVGID_2_);fill:#A7B192;}
	.st49{clip-path:url(#SVGID_2_);fill:#A6B091;}
	.st50{clip-path:url(#SVGID_2_);fill:#A5AF90;}
	.st51{clip-path:url(#SVGID_2_);fill:#A4AE90;}
	.st52{clip-path:url(#SVGID_2_);fill:#A4AD8F;}
	.st53{clip-path:url(#SVGID_2_);fill:#A3AC8E;}
	.st54{clip-path:url(#SVGID_2_);fill:#A2AB8D;}
	.st55{clip-path:url(#SVGID_2_);fill:#A1AA8D;}
	.st56{clip-path:url(#SVGID_2_);fill:#A0A98C;}
	.st57{clip-path:url(#SVGID_2_);fill:#9FA88B;}
	.st58{clip-path:url(#SVGID_2_);fill:#9EA78A;}
	.st59{clip-path:url(#SVGID_2_);fill:#9DA689;}
	.st60{clip-path:url(#SVGID_2_);fill:#9CA589;}
	.st61{clip-path:url(#SVGID_2_);fill:#9BA488;}
	.st62{clip-path:url(#SVGID_2_);fill:#9AA387;}
	.st63{clip-path:url(#SVGID_2_);fill:#99A286;}
	.st64{clip-path:url(#SVGID_2_);fill:#99A185;}
	.st65{clip-path:url(#SVGID_2_);fill:#98A085;}
	.st66{clip-path:url(#SVGID_2_);fill:#979F84;}
	.st67{clip-path:url(#SVGID_2_);fill:#969E83;}
	.st68{clip-path:url(#SVGID_2_);fill:#959D82;}
	.st69{clip-path:url(#SVGID_2_);fill:#949C82;}
	.st70{clip-path:url(#SVGID_2_);fill:#939B81;}
	.st71{clip-path:url(#SVGID_2_);fill:#929A80;}
	.st72{clip-path:url(#SVGID_2_);fill:#91997F;}
	.st73{clip-path:url(#SVGID_2_);fill:#90987E;}
	.st74{clip-path:url(#SVGID_2_);fill:#8F977E;}
	.st75{clip-path:url(#SVGID_2_);fill:#8F967D;}
	.st76{clip-path:url(#SVGID_2_);fill:#8E957C;}
	.st77{clip-path:url(#SVGID_2_);fill:#8D947B;}
	.st78{clip-path:url(#SVGID_2_);fill:#8C937A;}
	.st79{clip-path:url(#SVGID_2_);fill:#8B927A;}
	.st80{clip-path:url(#SVGID_2_);fill:#8A9179;}
	.st81{clip-path:url(#SVGID_2_);fill:#899078;}
	.st82{clip-path:url(#SVGID_2_);fill:#888F77;}
	.st83{clip-path:url(#SVGID_2_);fill:#878E77;}
	.st84{clip-path:url(#SVGID_2_);fill:#868D76;}
	.st85{clip-path:url(#SVGID_2_);fill:#858C75;}
	.st86{clip-path:url(#SVGID_2_);fill:#858B74;}
	.st87{clip-path:url(#SVGID_2_);fill:#848A73;}
	.st88{clip-path:url(#SVGID_2_);fill:#838973;}
	.st89{clip-path:url(#SVGID_2_);fill:#828872;}
	.st90{clip-path:url(#SVGID_2_);fill:#818771;}
	.st91{clip-path:url(#SVGID_2_);fill:#808670;}
	.st92{clip-path:url(#SVGID_2_);fill:#7F856F;}
	.st93{clip-path:url(#SVGID_2_);fill:#7E846F;}
	.st94{clip-path:url(#SVGID_2_);fill:#7D836E;}
	.st95{clip-path:url(#SVGID_2_);fill:#7C826D;}
	.st96{clip-path:url(#SVGID_2_);fill:#7B816C;}
	.st97{clip-path:url(#SVGID_2_);fill:#7B806C;}
	.st98{clip-path:url(#SVGID_2_);fill:#7A7E6B;}
	.st99{clip-path:url(#SVGID_2_);fill:#797D6A;}
	.st100{clip-path:url(#SVGID_2_);fill:#787C69;}
	.st101{clip-path:url(#SVGID_2_);fill:#777B68;}
	.st102{clip-path:url(#SVGID_2_);fill:#767A68;}
	.st103{clip-path:url(#SVGID_2_);fill:#757967;}
	.st104{clip-path:url(#SVGID_2_);fill:#747866;}
	.st105{clip-path:url(#SVGID_2_);fill:#737765;}
	.st106{clip-path:url(#SVGID_2_);fill:#727664;}
	.st107{clip-path:url(#SVGID_2_);fill:#717564;}
	.st108{clip-path:url(#SVGID_2_);fill:#707463;}
	.st109{clip-path:url(#SVGID_2_);fill:#707362;}
	.st110{clip-path:url(#SVGID_2_);fill:#6F7261;}
	.st111{clip-path:url(#SVGID_2_);fill:#6E7160;}
	.st112{clip-path:url(#SVGID_2_);fill:#6D7060;}
	.st113{clip-path:url(#SVGID_2_);fill:#6C6F5F;}
	.st114{clip-path:url(#SVGID_2_);fill:#6B6E5E;}
	.st115{clip-path:url(#SVGID_2_);fill:#6A6D5D;}
	.st116{clip-path:url(#SVGID_2_);fill:#696C5D;}
	.st117{clip-path:url(#SVGID_2_);fill:#686B5C;}
	.st118{clip-path:url(#SVGID_2_);fill:#676A5B;}
	.st119{clip-path:url(#SVGID_2_);fill:#66695A;}
	.st120{clip-path:url(#SVGID_2_);fill:#666859;}
	.st121{clip-path:url(#SVGID_2_);fill:#656759;}
	.st122{clip-path:url(#SVGID_2_);fill:#646658;}
	.st123{clip-path:url(#SVGID_2_);fill:#636557;}
	.st124{clip-path:url(#SVGID_2_);fill:#626456;}
	.st125{clip-path:url(#SVGID_2_);fill:#616355;}
	.st126{clip-path:url(#SVGID_2_);fill:#606255;}
	.st127{clip-path:url(#SVGID_2_);fill:#5F6154;}
	.st128{clip-path:url(#SVGID_2_);fill:#5E6053;}
	.st129{clip-path:url(#SVGID_2_);fill:#5D5F52;}
	.st130{clip-path:url(#SVGID_2_);fill:#5C5E52;}
	.st131{clip-path:url(#SVGID_2_);fill:#5C5D51;}
	.st132{clip-path:url(#SVGID_2_);fill:#5B5C50;}
	.st133{clip-path:url(#SVGID_2_);fill:#5A5B4F;}
	.st134{clip-path:url(#SVGID_2_);fill:#595A4E;}
	.st135{clip-path:url(#SVGID_2_);fill:#58594E;}
	.st136{clip-path:url(#SVGID_2_);fill:#57584D;}
	.st137{clip-path:url(#SVGID_2_);fill:#56574C;}
	.st138{clip-path:url(#SVGID_2_);fill:#55564B;}
	.st139{clip-path:url(#SVGID_2_);fill:#54554A;}
	.st140{clip-path:url(#SVGID_2_);fill:#53544A;}
	.st141{clip-path:url(#SVGID_2_);fill:#525349;}
	.st142{clip-path:url(#SVGID_2_);fill:#515248;}
	.st143{clip-path:url(#SVGID_2_);fill:#515147;}
	.st144{clip-path:url(#SVGID_2_);fill:#505047;}
	.st145{clip-path:url(#SVGID_2_);fill:#4F4F46;}
	.st146{clip-path:url(#SVGID_2_);fill:#4E4E45;}
	.st147{clip-path:url(#SVGID_2_);fill:#4D4D44;}
	.st148{clip-path:url(#SVGID_2_);fill:#4C4C43;}
	.st149{clip-path:url(#SVGID_2_);fill:#4B4B43;}
	.st150{clip-path:url(#SVGID_2_);fill:#4A4A42;}
	.st151{clip-path:url(#SVGID_2_);fill:#494941;}
	.st152{clip-path:url(#SVGID_2_);fill:#484840;}
	.st153{clip-path:url(#SVGID_2_);fill:#47473F;}
	.st154{clip-path:url(#SVGID_2_);fill:#47463F;}
	.st155{clip-path:url(#SVGID_2_);fill:#46453E;}
	.st156{clip-path:url(#SVGID_2_);fill:#45443D;}
	.st157{clip-path:url(#SVGID_2_);fill:#44433C;}
	.st158{clip-path:url(#SVGID_2_);fill:#43423C;}
	.st159{clip-path:url(#SVGID_2_);fill:#42413B;}
	.st160{clip-path:url(#SVGID_2_);fill:#41403A;}
	.st161{clip-path:url(#SVGID_2_);fill:#403F39;}
	.st162{clip-path:url(#SVGID_2_);fill:#3F3E38;}
	.st163{clip-path:url(#SVGID_2_);fill:#3E3D38;}
	.st164{clip-path:url(#SVGID_2_);fill:#3D3C37;}
	.st165{clip-path:url(#SVGID_2_);fill:#3D3B36;}
	.st166{clip-path:url(#SVGID_2_);fill:#3C3A35;}
	.st167{clip-path:url(#SVGID_2_);fill:#3B3934;}
	.st168{clip-path:url(#SVGID_2_);fill:#3A3834;}
	.st169{clip-path:url(#SVGID_2_);fill:#393733;}
	.st170{clip-path:url(#SVGID_2_);fill:#383632;}
	.st171{clip-path:url(#SVGID_2_);fill:#373531;}
	.st172{clip-path:url(#SVGID_2_);fill:#363431;}
	.st173{clip-path:url(#SVGID_2_);fill:#353330;}
	.st174{clip-path:url(#SVGID_2_);fill:#34322F;}
	.st175{clip-path:url(#SVGID_2_);fill:#33312E;}
	.st176{clip-path:url(#SVGID_2_);fill:#32302D;}
	.st177{clip-path:url(#SVGID_2_);fill:#322F2D;}
	.st178{clip-path:url(#SVGID_2_);fill:#312E2C;}
	.st179{clip-path:url(#SVGID_2_);fill:#302D2B;}
	.st180{clip-path:url(#SVGID_2_);fill:#2F2C2A;}
	.st181{clip-path:url(#SVGID_2_);fill:#2E2B29;}
	.st182{clip-path:url(#SVGID_2_);fill:#2D2A29;}
	.st183{clip-path:url(#SVGID_2_);fill:#2C2928;}
	.st184{clip-path:url(#SVGID_2_);fill:#2B2827;}
	.st185{clip-path:url(#SVGID_2_);fill:#2A2726;}
	.st186{clip-path:url(#SVGID_2_);fill:#292626;}
	.st187{clip-path:url(#SVGID_2_);fill:#282525;}
	.st188{clip-path:url(#SVGID_2_);fill:#282424;}
	.st189{clip-path:url(#SVGID_2_);fill:#272323;}
	.st190{clip-path:url(#SVGID_2_);fill:#262222;}
	.st191{clip-path:url(#SVGID_2_);fill:#252122;}
	.st192{clip-path:url(#SVGID_2_);fill:#242021;}
	.st193{clip-path:url(#SVGID_2_);fill:#231F20;}
	.st194{fill:#F7FCFD;}
	.st195{fill:#494949;}
	.st196{fill-rule:evenodd;clip-rule:evenodd;fill:#494949;}
	.st197{fill:#231F20;}
</style>
<g>
	<rect class="st0" width="343" height="600"/>
</g>
<g>
	<g>
		<g>
			<g>
				<defs>
					<rect id="SVGID_1_" width="343" height="59"/>
				</defs>
				<clipPath id="SVGID_2_">
					<use xlink:href="#SVGID_1_"  style="overflow:visible;"/>
				</clipPath>
				<path class="st1" d="M0,59h343H0z"/>
				<rect y="58.7" class="st1" width="343" height="0.3"/>
				<rect y="58.4" class="st2" width="343" height="0.3"/>
				<rect y="58.1" class="st3" width="343" height="0.3"/>
				<rect y="57.8" class="st4" width="343" height="0.3"/>
				<rect y="57.5" class="st5" width="343" height="0.3"/>
				<rect y="57.2" class="st6" width="343" height="0.3"/>
				<rect y="56.9" class="st7" width="343" height="0.3"/>
				<rect y="56.6" class="st8" width="343" height="0.3"/>
				<rect y="56.2" class="st9" width="343" height="0.3"/>
				<rect y="55.9" class="st10" width="343" height="0.3"/>
				<rect y="55.6" class="st11" width="343" height="0.3"/>
				<rect y="55.3" class="st12" width="343" height="0.3"/>
				<rect y="55" class="st13" width="343" height="0.3"/>
				<rect y="54.7" class="st14" width="343" height="0.3"/>
				<rect y="54.4" class="st15" width="343" height="0.3"/>
				<rect y="54.1" class="st16" width="343" height="0.3"/>
				<rect y="53.8" class="st17" width="343" height="0.3"/>
				<rect y="53.5" class="st18" width="343" height="0.3"/>
				<rect y="53.2" class="st19" width="343" height="0.3"/>
				<rect y="52.9" class="st20" width="343" height="0.3"/>
				<rect y="52.6" class="st21" width="343" height="0.3"/>
				<rect y="52.3" class="st22" width="343" height="0.3"/>
				<rect y="52" class="st23" width="343" height="0.3"/>
				<rect y="51.7" class="st24" width="343" height="0.3"/>
				<rect y="51.4" class="st25" width="343" height="0.3"/>
				<rect y="51.1" class="st26" width="343" height="0.3"/>
				<rect y="50.7" class="st27" width="343" height="0.3"/>
				<rect y="50.4" class="st28" width="343" height="0.3"/>
				<rect y="50.1" class="st29" width="343" height="0.3"/>
				<rect y="49.8" class="st30" width="343" height="0.3"/>
				<rect y="49.5" class="st31" width="343" height="0.3"/>
				<rect y="49.2" class="st32" width="343" height="0.3"/>
				<rect y="48.9" class="st33" width="343" height="0.3"/>
				<rect y="48.6" class="st34" width="343" height="0.3"/>
				<rect y="48.3" class="st35" width="343" height="0.3"/>
				<rect y="48" class="st36" width="343" height="0.3"/>
				<rect y="47.7" class="st37" width="343" height="0.3"/>
				<rect y="47.4" class="st38" width="343" height="0.3"/>
				<rect y="47.1" class="st39" width="343" height="0.3"/>
				<rect y="46.8" class="st40" width="343" height="0.3"/>
				<rect y="46.5" class="st41" width="343" height="0.3"/>
				<rect y="46.2" class="st42" width="343" height="0.3"/>
				<rect y="45.9" class="st43" width="343" height="0.3"/>
				<rect y="45.5" class="st44" width="343" height="0.3"/>
				<rect y="45.2" class="st45" width="343" height="0.3"/>
				<rect y="44.9" class="st46" width="343" height="0.3"/>
				<rect y="44.6" class="st47" width="343" height="0.3"/>
				<rect y="44.3" class="st48" width="343" height="0.3"/>
				<rect y="44" class="st49" width="343" height="0.3"/>
				<rect y="43.7" class="st50" width="343" height="0.3"/>
				<rect y="43.4" class="st51" width="343" height="0.3"/>
				<rect y="43.1" class="st52" width="343" height="0.3"/>
				<rect y="42.8" class="st53" width="343" height="0.3"/>
				<rect y="42.5" class="st54" width="343" height="0.3"/>
				<rect y="42.2" class="st55" width="343" height="0.3"/>
				<rect y="41.9" class="st56" width="343" height="0.3"/>
				<rect y="41.6" class="st57" width="343" height="0.3"/>
				<rect y="41.3" class="st58" width="343" height="0.3"/>
				<rect y="41" class="st59" width="343" height="0.3"/>
				<rect y="40.7" class="st60" width="343" height="0.3"/>
				<rect y="40.4" class="st61" width="343" height="0.3"/>
				<rect y="40" class="st62" width="343" height="0.3"/>
				<rect y="39.7" class="st63" width="343" height="0.3"/>
				<rect y="39.4" class="st64" width="343" height="0.3"/>
				<rect y="39.1" class="st65" width="343" height="0.3"/>
				<rect y="38.8" class="st66" width="343" height="0.3"/>
				<rect y="38.5" class="st67" width="343" height="0.3"/>
				<rect y="38.2" class="st68" width="343" height="0.3"/>
				<rect y="37.9" class="st69" width="343" height="0.3"/>
				<rect y="37.6" class="st70" width="343" height="0.3"/>
				<rect y="37.3" class="st71" width="343" height="0.3"/>
				<rect y="37" class="st72" width="343" height="0.3"/>
				<rect y="36.7" class="st73" width="343" height="0.3"/>
				<rect y="36.4" class="st74" width="343" height="0.3"/>
				<rect y="36.1" class="st75" width="343" height="0.3"/>
				<rect y="35.8" class="st76" width="343" height="0.3"/>
				<rect y="35.5" class="st77" width="343" height="0.3"/>
				<rect y="35.2" class="st78" width="343" height="0.3"/>
				<rect y="34.8" class="st79" width="343" height="0.3"/>
				<rect y="34.5" class="st80" width="343" height="0.3"/>
				<rect y="34.2" class="st81" width="343" height="0.3"/>
				<rect y="33.9" class="st82" width="343" height="0.3"/>
				<rect y="33.6" class="st83" width="343" height="0.3"/>
				<rect y="33.3" class="st84" width="343" height="0.3"/>
				<rect y="33" class="st85" width="343" height="0.3"/>
				<rect y="32.7" class="st86" width="343" height="0.3"/>
				<rect y="32.4" class="st87" width="343" height="0.3"/>
				<rect y="32.1" class="st88" width="343" height="0.3"/>
				<rect y="31.8" class="st89" width="343" height="0.3"/>
				<rect y="31.5" class="st90" width="343" height="0.3"/>
				<rect y="31.2" class="st91" width="343" height="0.3"/>
				<rect y="30.9" class="st92" width="343" height="0.3"/>
				<rect y="30.6" class="st93" width="343" height="0.3"/>
				<rect y="30.3" class="st94" width="343" height="0.3"/>
				<rect y="30" class="st95" width="343" height="0.3"/>
				<rect y="29.7" class="st96" width="343" height="0.3"/>
				<rect y="29.3" class="st97" width="343" height="0.3"/>
				<rect y="29" class="st98" width="343" height="0.3"/>
				<rect y="28.7" class="st99" width="343" height="0.3"/>
				<rect y="28.4" class="st100" width="343" height="0.3"/>
				<rect y="28.1" class="st101" width="343" height="0.3"/>
				<rect y="27.8" class="st102" width="343" height="0.3"/>
				<rect y="27.5" class="st103" width="343" height="0.3"/>
				<rect y="27.2" class="st104" width="343" height="0.3"/>
				<rect y="26.9" class="st105" width="343" height="0.3"/>
				<rect y="26.6" class="st106" width="343" height="0.3"/>
				<rect y="26.3" class="st107" width="343" height="0.3"/>
				<rect y="26" class="st108" width="343" height="0.3"/>
				<rect y="25.7" class="st109" width="343" height="0.3"/>
				<rect y="25.4" class="st110" width="343" height="0.3"/>
				<rect y="25.1" class="st111" width="343" height="0.3"/>
				<rect y="24.8" class="st112" width="343" height="0.3"/>
				<rect y="24.5" class="st113" width="343" height="0.3"/>
				<rect y="24.2" class="st114" width="343" height="0.3"/>
				<rect y="23.8" class="st115" width="343" height="0.3"/>
				<rect y="23.5" class="st116" width="343" height="0.3"/>
				<rect y="23.2" class="st117" width="343" height="0.3"/>
				<rect y="22.9" class="st118" width="343" height="0.3"/>
				<rect y="22.6" class="st119" width="343" height="0.3"/>
				<rect y="22.3" class="st120" width="343" height="0.3"/>
				<rect y="22" class="st121" width="343" height="0.3"/>
				<rect y="21.7" class="st122" width="343" height="0.3"/>
				<rect y="21.4" class="st123" width="343" height="0.3"/>
				<rect y="21.1" class="st124" width="343" height="0.3"/>
				<rect y="20.8" class="st125" width="343" height="0.3"/>
				<rect y="20.5" class="st126" width="343" height="0.3"/>
				<rect y="20.2" class="st127" width="343" height="0.3"/>
				<rect y="19.9" class="st128" width="343" height="0.3"/>
				<rect y="19.6" class="st129" width="343" height="0.3"/>
				<rect y="19.3" class="st130" width="343" height="0.3"/>
				<rect y="19" class="st131" width="343" height="0.3"/>
				<rect y="18.6" class="st132" width="343" height="0.3"/>
				<rect y="18.3" class="st133" width="343" height="0.3"/>
				<rect y="18" class="st134" width="343" height="0.3"/>
				<rect y="17.7" class="st135" width="343" height="0.3"/>
				<rect y="17.4" class="st136" width="343" height="0.3"/>
				<rect y="17.1" class="st137" width="343" height="0.3"/>
				<rect y="16.8" class="st138" width="343" height="0.3"/>
				<rect y="16.5" class="st139" width="343" height="0.3"/>
				<rect y="16.2" class="st140" width="343" height="0.3"/>
				<rect y="15.9" class="st141" width="343" height="0.3"/>
				<rect y="15.6" class="st142" width="343" height="0.3"/>
				<rect y="15.3" class="st143" width="343" height="0.3"/>
				<rect y="15" class="st144" width="343" height="0.3"/>
				<rect y="14.7" class="st145" width="343" height="0.3"/>
				<rect y="14.4" class="st146" width="343" height="0.3"/>
				<rect y="14.1" class="st147" width="343" height="0.3"/>
				<rect y="13.8" class="st148" width="343" height="0.3"/>
				<rect y="13.5" class="st149" width="343" height="0.3"/>
				<rect y="13.1" class="st150" width="343" height="0.3"/>
				<rect y="12.8" class="st151" width="343" height="0.3"/>
				<rect y="12.5" class="st152" width="343" height="0.3"/>
				<rect y="12.2" class="st153" width="343" height="0.3"/>
				<rect y="11.9" class="st154" width="343" height="0.3"/>
				<rect y="11.6" class="st155" width="343" height="0.3"/>
				<rect y="11.3" class="st156" width="343" height="0.3"/>
				<rect y="11" class="st157" width="343" height="0.3"/>
				<rect y="10.7" class="st158" width="343" height="0.3"/>
				<rect y="10.4" class="st159" width="343" height="0.3"/>
				<rect y="10.1" class="st160" width="343" height="0.3"/>
				<rect y="9.8" class="st161" width="343" height="0.3"/>
				<rect y="9.5" class="st162" width="343" height="0.3"/>
				<rect y="9.2" class="st163" width="343" height="0.3"/>
				<rect y="8.9" class="st164" width="343" height="0.3"/>
				<rect y="8.6" class="st165" width="343" height="0.3"/>
				<rect y="8.3" class="st166" width="343" height="0.3"/>
				<rect y="7.9" class="st167" width="343" height="0.3"/>
				<rect y="7.6" class="st168" width="343" height="0.3"/>
				<rect y="7.3" class="st169" width="343" height="0.3"/>
				<rect y="7" class="st170" width="343" height="0.3"/>
				<rect y="6.7" class="st171" width="343" height="0.3"/>
				<rect y="6.4" class="st172" width="343" height="0.3"/>
				<rect y="6.1" class="st173" width="343" height="0.3"/>
				<rect y="5.8" class="st174" width="343" height="0.3"/>
				<rect y="5.5" class="st175" width="343" height="0.3"/>
				<rect y="5.2" class="st176" width="343" height="0.3"/>
				<rect y="4.9" class="st177" width="343" height="0.3"/>
				<rect y="4.6" class="st178" width="343" height="0.3"/>
				<rect y="4.3" class="st179" width="343" height="0.3"/>
				<rect y="4" class="st180" width="343" height="0.3"/>
				<rect y="3.7" class="st181" width="343" height="0.3"/>
				<rect y="3.4" class="st182" width="343" height="0.3"/>
				<rect y="3.1" class="st183" width="343" height="0.3"/>
				<rect y="2.8" class="st184" width="343" height="0.3"/>
				<rect y="2.4" class="st185" width="343" height="0.3"/>
				<rect y="2.1" class="st186" width="343" height="0.3"/>
				<rect y="1.8" class="st187" width="343" height="0.3"/>
				<rect y="1.5" class="st188" width="343" height="0.3"/>
				<rect y="1.2" class="st189" width="343" height="0.3"/>
				<rect y="0.9" class="st190" width="343" height="0.3"/>
				<rect y="0.6" class="st191" width="343" height="0.3"/>
				<rect y="0.3" class="st192" width="343" height="0.3"/>
				<rect class="st193" width="343" height="0.3"/>
				<path class="st193" d="M343,0H0H343z"/>
			</g>
		</g>
	</g>
</g>
<g>
	<g>
		<g>
			<rect class="st194" width="343" height="48"/>
		</g>
	</g>
</g>
<g>
	<g>
		<path d="M34.1,32.9c-0.3,0-0.6-0.1-0.8-0.3S33,32.1,33,31.8V16.2c0-0.3,0.1-0.6,0.3-0.8s0.5-0.3,0.8-0.3s0.6,0.1,0.8,0.3
			s0.3,0.5,0.3,0.8v6.3c0.5-0.6,1.1-1.1,1.8-1.5c0.7-0.5,1.6-0.7,2.7-0.7c0.9,0,1.7,0.2,2.3,0.6s1.1,1,1.5,1.7S44,24.1,44,25v6.8
			c0,0.3-0.1,0.6-0.3,0.8s-0.5,0.3-0.8,0.3s-0.6-0.1-0.8-0.3s-0.3-0.5-0.3-0.8v-6.6c0-0.9-0.2-1.6-0.6-2.1s-1.1-0.8-2-0.8
			s-1.6,0.2-2.3,0.7s-1.2,1-1.7,1.6v7.2c0,0.3-0.1,0.6-0.3,0.8C34.6,32.8,34.4,32.9,34.1,32.9z"/>
	</g>
	<g>
		<path d="M54.3,33c-2,0-3.5-0.6-4.6-1.7s-1.6-2.7-1.6-4.7c0-1.1,0.2-2.1,0.6-3.1c0.4-1,1-1.8,1.9-2.4c0.8-0.6,1.9-0.9,3.3-0.9
			c1.2,0,2.3,0.3,3.1,0.9s1.5,1.3,1.9,2.2c0.4,0.9,0.7,1.9,0.7,3c0,0.3-0.1,0.6-0.3,0.8c-0.2,0.2-0.5,0.3-0.8,0.3h-8.1
			c0.1,1.1,0.5,1.9,1.2,2.6c0.7,0.6,1.7,1,3,1c0.7,0,1.3-0.1,1.8-0.2s1-0.3,1.4-0.5c0.1-0.1,0.3-0.1,0.4-0.1c0.3,0,0.5,0.1,0.7,0.3
			c0.2,0.2,0.3,0.4,0.3,0.7c0,0.2-0.1,0.4-0.2,0.5s-0.3,0.3-0.4,0.4c-0.5,0.3-1.1,0.6-1.7,0.8C56.1,32.9,55.3,33,54.3,33z
			 M50.3,25.6h7.1c0-0.8-0.3-1.5-0.6-2s-0.8-0.9-1.4-1.1c-0.5-0.2-1-0.4-1.6-0.4s-1,0.1-1.6,0.4c-0.5,0.2-1,0.6-1.3,1.1
			C50.5,24.1,50.3,24.8,50.3,25.6z"/>
	</g>
	<g>
		<path d="M64.7,32.9c-0.3,0-0.6-0.1-0.8-0.3s-0.3-0.5-0.3-0.8V16.2c0-0.3,0.1-0.6,0.3-0.8s0.5-0.3,0.8-0.3s0.6,0.1,0.8,0.3
			c0.2,0.2,0.3,0.5,0.3,0.8v15.6c0,0.3-0.1,0.6-0.3,0.8C65.3,32.8,65,32.9,64.7,32.9z"/>
	</g>
	<g>
		<path d="M71.8,32.9c-0.3,0-0.6-0.1-0.8-0.3c-0.2-0.2-0.3-0.5-0.3-0.8V16.2c0-0.3,0.1-0.6,0.3-0.8c0.2-0.2,0.5-0.3,0.8-0.3
			s0.6,0.1,0.8,0.3c0.2,0.2,0.3,0.5,0.3,0.8v15.6c0,0.3-0.1,0.6-0.3,0.8C72.4,32.8,72.2,32.9,71.8,32.9z"/>
	</g>
	<g>
		<path d="M83.3,33c-1.2,0-2.3-0.3-3.2-0.8S78.5,30.9,78,30c-0.5-1-0.8-2.1-0.8-3.3c0-1.3,0.3-2.4,0.8-3.3s1.2-1.7,2.1-2.2
			s2-0.8,3.2-0.8s2.3,0.3,3.2,0.8c0.9,0.5,1.6,1.3,2.1,2.2s0.8,2.1,0.8,3.3c0,1.3-0.3,2.4-0.8,3.3c-0.5,1-1.2,1.7-2.1,2.2
			C85.6,32.7,84.6,33,83.3,33z M83.3,31c0.6,0,1.2-0.1,1.8-0.4c0.6-0.3,1.1-0.8,1.5-1.4s0.6-1.5,0.6-2.6s-0.2-1.9-0.6-2.5
			s-0.9-1.1-1.5-1.4s-1.2-0.4-1.8-0.4s-1.2,0.1-1.8,0.4c-0.6,0.3-1.1,0.7-1.5,1.4c-0.4,0.6-0.6,1.5-0.6,2.5c0,1.1,0.2,1.9,0.6,2.6
			c0.4,0.6,0.9,1.1,1.5,1.4S82.7,31,83.3,31z"/>
	</g>
	<g>
		<path d="M94.6,32.8c-0.4,0-0.7-0.1-0.9-0.4c-0.3-0.3-0.4-0.6-0.4-0.9v-0.1c0-0.4,0.1-0.7,0.4-0.9c0.3-0.3,0.6-0.4,0.9-0.4h0.2
			c0.4,0,0.7,0.1,0.9,0.4c0.3,0.3,0.4,0.6,0.4,0.9v0.1c0,0.4-0.1,0.7-0.4,0.9c-0.3,0.3-0.6,0.4-0.9,0.4H94.6z"/>
	</g>
	<g>
		<path d="M102,32.8c-0.4,0-0.7-0.1-0.9-0.4c-0.3-0.3-0.4-0.6-0.4-0.9v-0.1c0-0.4,0.1-0.7,0.4-0.9c0.3-0.3,0.6-0.4,0.9-0.4h0.2
			c0.4,0,0.7,0.1,0.9,0.4c0.3,0.3,0.4,0.6,0.4,0.9v0.1c0,0.4-0.1,0.7-0.4,0.9c-0.3,0.3-0.6,0.4-0.9,0.4H102z"/>
	</g>
	<g>
		<path d="M109.5,32.8c-0.4,0-0.7-0.1-0.9-0.4c-0.3-0.3-0.4-0.6-0.4-0.9v-0.1c0-0.4,0.1-0.7,0.4-0.9c0.3-0.3,0.6-0.4,0.9-0.4h0.2
			c0.4,0,0.7,0.1,0.9,0.4c0.3,0.3,0.4,0.6,0.4,0.9v0.1c0,0.4-0.1,0.7-0.4,0.9c-0.3,0.3-0.6,0.4-0.9,0.4H109.5z"/>
	</g>
</g>
<g>
	<g>
		<path d="M32.5,270h6.9v18.6c0,3,0.1,4.9,0.3,5.7c0.3,1.4,1,2.5,2.1,3.4s2.6,1.3,4.6,1.3s3.5-0.4,4.5-1.2s1.6-1.8,1.8-3
			s0.3-3.1,0.3-5.8v-19h6.9v18c0,4.1-0.2,7-0.6,8.7s-1.1,3.1-2.1,4.3s-2.4,2.1-4,2.8s-3.9,1-6.6,1c-3.3,0-5.8-0.4-7.5-1.1
			s-3-1.7-4-3s-1.6-2.5-1.9-3.8c-0.5-2-0.7-4.9-0.7-8.7V270z"/>
	</g>
	<g>
		<path d="M69.4,304.4V270h6.9v34.4H69.4z"/>
	</g>
	<g>
		<path d="M81.8,305l8.5-35.5h4.9L86.7,305H81.8z"/>
	</g>
	<g>
		<path d="M101.1,270h6.9v18.6c0,3,0.1,4.9,0.3,5.7c0.3,1.4,1,2.5,2.1,3.4s2.6,1.3,4.6,1.3s3.5-0.4,4.5-1.2s1.6-1.8,1.8-3
			s0.3-3.1,0.3-5.8v-19h6.9v18c0,4.1-0.2,7-0.6,8.7s-1.1,3.1-2.1,4.3s-2.4,2.1-4,2.8s-3.9,1-6.6,1c-3.3,0-5.8-0.4-7.5-1.1
			s-3-1.7-4-3s-1.6-2.5-1.9-3.8c-0.5-2-0.7-4.9-0.7-8.7C101.1,288.2,101.1,270,101.1,270z"/>
	</g>
	<g>
		<path d="M134.7,304.4l11.7-17.9L135.8,270h8.1l6.9,11l6.8-11h8l-10.7,16.7l11.7,17.7h-8.4l-7.6-11.9l-7.6,11.9L134.7,304.4
			L134.7,304.4z"/>
	</g>
	<g>
		<path d="M32.6,318h12.7c2.9,0,5,0.2,6.5,0.7c2,0.6,3.7,1.6,5.2,3.2s2.5,3.4,3.3,5.6s1.1,4.9,1.1,8.1c0,2.8-0.4,5.3-1.1,7.3
			c-0.9,2.5-2.1,4.5-3.7,6.1c-1.2,1.2-2.8,2.1-4.9,2.7c-1.5,0.5-3.6,0.7-6.1,0.7h-13V318z M39.5,323.9v22.8h5.2
			c1.9,0,3.3-0.1,4.2-0.3c1.1-0.3,2.1-0.8,2.8-1.4s1.3-1.8,1.8-3.3s0.7-3.6,0.7-6.3s-0.2-4.7-0.7-6.1s-1.1-2.5-2-3.3
			s-1.9-1.3-3.2-1.6c-1-0.2-2.9-0.3-5.7-0.3h-3.1V323.9z"/>
	</g>
	<g>
		<path d="M84,344.5l6.6,1.1c-0.8,2.4-2.2,4.2-4,5.5s-4.1,1.9-6.8,1.9c-4.3,0-7.5-1.4-9.6-4.2c-1.6-2.3-2.5-5.1-2.5-8.6
			c0-4.1,1.1-7.4,3.2-9.7s4.9-3.5,8.2-3.5c3.7,0,6.6,1.2,8.8,3.7s3.2,6.2,3.1,11.2H74.4c0,2,0.6,3.5,1.6,4.6s2.3,1.6,3.8,1.6
			c1,0,1.9-0.3,2.6-0.8S83.7,345.7,84,344.5z M84.4,337.8c0-1.9-0.5-3.4-1.5-4.3s-2.1-1.5-3.4-1.5c-1.4,0-2.6,0.5-3.6,1.6
			s-1.4,2.5-1.4,4.3h9.9V337.8z"/>
	</g>
	<g>
		<path d="M96.4,345.3l6.6-1c0.3,1.3,0.9,2.3,1.7,2.9s2.1,1,3.6,1c1.7,0,3-0.3,3.8-0.9c0.6-0.4,0.9-1,0.9-1.8c0-0.5-0.2-0.9-0.5-1.2
			c-0.3-0.3-1.1-0.6-2.2-0.9c-5.3-1.2-8.7-2.2-10.1-3.2c-2-1.3-3-3.2-3-5.6c0-2.2,0.9-4,2.6-5.4s4.3-2.2,7.9-2.2
			c3.4,0,5.9,0.6,7.6,1.7s2.8,2.8,3.4,4.9l-6.2,1.1c-0.3-1-0.8-1.7-1.5-2.2s-1.8-0.8-3.2-0.8c-1.7,0-3,0.2-3.7,0.7
			c-0.5,0.3-0.8,0.8-0.8,1.3s0.2,0.9,0.7,1.2c0.6,0.4,2.6,1.1,6.2,1.9s6,1.8,7.3,2.9c1.4,1.2,2.1,2.8,2.1,4.9c0,2.3-1,4.2-2.9,5.9
			s-4.7,2.5-8.5,2.5c-3.4,0-6.1-0.7-8.1-2.1S97,347.7,96.4,345.3z"/>
	</g>
	<g>
		<path d="M127.8,324.1V318h6.6v6.1H127.8z M127.8,352.4v-24.9h6.6v24.9H127.8z"/>
	</g>
	<g>
		<path d="M142.9,354l7.5,0.9c0.1,0.9,0.4,1.5,0.9,1.8c0.6,0.5,1.6,0.7,3,0.7c1.7,0,3-0.3,3.9-0.8c0.6-0.3,1-0.9,1.3-1.7
			c0.2-0.5,0.3-1.6,0.3-3v-3.6c-2,2.7-4.5,4-7.5,4c-3.3,0-6-1.4-7.9-4.2c-1.5-2.2-2.3-5-2.3-8.3c0-4.2,1-7.4,3-9.6s4.5-3.3,7.5-3.3
			c3.1,0,5.6,1.4,7.6,4.1v-3.5h6.2v22.3c0,2.9-0.2,5.1-0.7,6.6s-1.2,2.6-2,3.4s-2,1.5-3.5,1.9s-3.3,0.7-5.5,0.7
			c-4.2,0-7.2-0.7-9-2.2s-2.6-3.3-2.6-5.5C142.9,354.6,142.9,354.4,142.9,354z M148.8,339.4c0,2.6,0.5,4.6,1.5,5.8s2.3,1.8,3.8,1.8
			c1.6,0,3-0.6,4.1-1.9s1.7-3.1,1.7-5.6c0-2.6-0.5-4.5-1.6-5.7s-2.4-1.9-4-1.9s-2.9,0.6-3.9,1.8S148.8,336.9,148.8,339.4z"/>
	</g>
	<g>
		<path d="M197.9,352.4h-6.6v-12.7c0-2.7-0.1-4.4-0.4-5.2s-0.7-1.4-1.4-1.8s-1.4-0.7-2.3-0.7c-1.1,0-2.2,0.3-3.1,0.9
			s-1.5,1.5-1.9,2.5s-0.5,2.9-0.5,5.7v11.3h-6.6v-24.9h6.1v3.7c2.2-2.8,4.9-4.2,8.2-4.2c1.5,0,2.8,0.3,4,0.8s2.1,1.2,2.7,2
			s1,1.7,1.3,2.8s0.4,2.5,0.4,4.4v15.4H197.9z"/>
	</g>
	<g>
		<path d="M221.4,344.5l6.6,1.1c-0.8,2.4-2.2,4.2-4,5.5s-4.1,1.9-6.8,1.9c-4.3,0-7.5-1.4-9.6-4.2c-1.6-2.3-2.5-5.1-2.5-8.6
			c0-4.1,1.1-7.4,3.2-9.7s4.9-3.5,8.2-3.5c3.7,0,6.6,1.2,8.8,3.7s3.2,6.2,3.1,11.2h-16.5c0,2,0.6,3.5,1.6,4.6s2.3,1.6,3.8,1.6
			c1,0,1.9-0.3,2.6-0.8S221,345.7,221.4,344.5z M221.8,337.8c0-1.9-0.5-3.4-1.5-4.3s-2.1-1.5-3.4-1.5c-1.4,0-2.6,0.5-3.6,1.6
			s-1.4,2.5-1.4,4.3h9.9V337.8z"/>
	</g>
	<g>
		<path d="M242.4,352.4h-6.6v-24.9h6.1v3.5c1-1.7,2-2.8,2.8-3.3s1.8-0.8,2.8-0.8c1.5,0,2.9,0.4,4.3,1.2l-2,5.7
			c-1.1-0.7-2.1-1.1-3.1-1.1c-0.9,0-1.7,0.3-2.3,0.8s-1.1,1.4-1.5,2.8s-0.6,4.1-0.6,8.3v7.8H242.4z"/>
	</g>
	<g>
		<path d="M32.6,366h12.7c2.9,0,5,0.2,6.5,0.7c2,0.6,3.7,1.6,5.2,3.2s2.5,3.4,3.3,5.6s1.1,4.9,1.1,8.1c0,2.8-0.4,5.3-1.1,7.3
			c-0.9,2.5-2.1,4.5-3.7,6.1c-1.2,1.2-2.8,2.1-4.9,2.7c-1.5,0.5-3.6,0.7-6.1,0.7h-13V366z M39.5,371.9v22.8h5.2
			c1.9,0,3.3-0.1,4.2-0.3c1.1-0.3,2.1-0.8,2.8-1.4s1.3-1.8,1.8-3.3s0.7-3.6,0.7-6.3s-0.2-4.7-0.7-6.1s-1.1-2.5-2-3.3
			s-1.9-1.3-3.2-1.6c-1-0.2-2.9-0.3-5.7-0.3h-3.1V371.9z"/>
	</g>
	<g>
		<path d="M84,392.5l6.6,1.1c-0.8,2.4-2.2,4.2-4,5.5s-4.1,1.9-6.8,1.9c-4.3,0-7.5-1.4-9.6-4.2c-1.6-2.3-2.5-5.1-2.5-8.6
			c0-4.1,1.1-7.4,3.2-9.7s4.9-3.5,8.2-3.5c3.7,0,6.6,1.2,8.8,3.7s3.2,6.2,3.1,11.2H74.4c0,2,0.6,3.5,1.6,4.6s2.3,1.6,3.8,1.6
			c1,0,1.9-0.3,2.6-0.8S83.7,393.7,84,392.5z M84.4,385.8c0-1.9-0.5-3.4-1.5-4.3s-2.1-1.5-3.4-1.5c-1.4,0-2.6,0.5-3.6,1.6
			s-1.4,2.5-1.4,4.3h9.9V385.8z"/>
	</g>
	<g>
		<path d="M105.5,400.4l-10-24.9h6.9l4.7,12.7l1.4,4.2c0.4-1.1,0.6-1.8,0.7-2.1c0.2-0.7,0.5-1.4,0.7-2.1l4.7-12.7h6.8l-9.9,24.9
			H105.5z"/>
	</g>
	<g>
		<path d="M142.2,392.5l6.6,1.1c-0.8,2.4-2.2,4.2-4,5.5s-4.1,1.9-6.8,1.9c-4.3,0-7.5-1.4-9.6-4.2c-1.6-2.3-2.5-5.1-2.5-8.6
			c0-4.1,1.1-7.4,3.2-9.7c2.1-2.3,4.9-3.5,8.2-3.5c3.7,0,6.6,1.2,8.8,3.7s3.2,6.2,3.1,11.2h-16.5c0,2,0.6,3.5,1.6,4.6
			s2.3,1.6,3.8,1.6c1,0,1.9-0.3,2.6-0.8S141.8,393.7,142.2,392.5z M142.6,385.8c0-1.9-0.5-3.4-1.5-4.3s-2.1-1.5-3.4-1.5
			c-1.4,0-2.6,0.5-3.6,1.6s-1.4,2.5-1.4,4.3h9.9V385.8z"/>
	</g>
	<g>
		<path d="M156.9,400.4V366h6.6v34.4H156.9z"/>
	</g>
	<g>
		<path d="M171.1,387.6c0-2.2,0.5-4.3,1.6-6.4s2.6-3.6,4.6-4.7s4.2-1.6,6.6-1.6c3.8,0,6.9,1.2,9.3,3.7s3.6,5.5,3.6,9.3
			s-1.2,6.9-3.6,9.4s-5.5,3.7-9.2,3.7c-2.3,0-4.5-0.5-6.5-1.5s-3.6-2.5-4.7-4.5S171.1,390.5,171.1,387.6z M177.9,388
			c0,2.5,0.6,4.4,1.8,5.7s2.6,2,4.3,2s3.2-0.7,4.3-2s1.7-3.2,1.7-5.7c0-2.4-0.6-4.3-1.7-5.6s-2.6-2-4.3-2s-3.2,0.7-4.3,2
			S177.9,385.5,177.9,388z"/>
	</g>
	<g>
		<path d="M204.2,375.5h6.1v3.7c0.8-1.3,1.9-2.3,3.2-3s2.9-1.2,4.5-1.2c2.9,0,5.3,1.1,7.4,3.4s3,5.4,3,9.5c0,4.2-1,7.4-3,9.7
			s-4.5,3.5-7.4,3.5c-1.4,0-2.6-0.3-3.7-0.8s-2.3-1.5-3.5-2.8V410h-6.6V375.5z M210.7,387.5c0,2.8,0.6,4.9,1.7,6.2s2.5,2,4.1,2
			c1.5,0,2.8-0.6,3.8-1.8s1.5-3.2,1.5-6c0-2.6-0.5-4.5-1.6-5.8s-2.3-1.9-3.9-1.9c-1.6,0-2.9,0.6-4,1.9S210.7,385.1,210.7,387.5z"/>
	</g>
	<g>
		<path d="M250.5,392.5l6.6,1.1c-0.8,2.4-2.2,4.2-4,5.5s-4.1,1.9-6.8,1.9c-4.3,0-7.5-1.4-9.6-4.2c-1.6-2.3-2.5-5.1-2.5-8.6
			c0-4.1,1.1-7.4,3.2-9.7s4.9-3.5,8.2-3.5c3.7,0,6.6,1.2,8.8,3.7c2.2,2.5,3.2,6.2,3.1,11.2H241c0,2,0.6,3.5,1.6,4.6s2.3,1.6,3.8,1.6
			c1,0,1.9-0.3,2.6-0.8S250.1,393.7,250.5,392.5z M250.9,385.8c0-1.9-0.5-3.4-1.5-4.3s-2.1-1.5-3.4-1.5c-1.4,0-2.6,0.5-3.6,1.6
			s-1.4,2.5-1.4,4.3h9.9V385.8z"/>
	</g>
	<g>
		<path d="M271.5,400.4h-6.6v-24.9h6.1v3.5c1-1.7,2-2.8,2.8-3.3s1.8-0.8,2.8-0.8c1.5,0,2.9,0.4,4.3,1.2l-2,5.7
			c-1.1-0.7-2.1-1.1-3.1-1.1c-0.9,0-1.7,0.3-2.3,0.8s-1.1,1.4-1.5,2.8s-0.6,4.1-0.6,8.3v7.8H271.5z"/>
	</g>
</g>
<g>
	<g>
		<path class="st195" d="M33.5,250c-0.3,0-0.6-0.1-0.8-0.3s-0.3-0.5-0.3-0.8v-14.8c0-0.3,0.1-0.6,0.3-0.8s0.5-0.3,0.8-0.3
			s0.6,0.1,0.8,0.3s0.3,0.5,0.3,0.8v14.8c0,0.3-0.1,0.6-0.3,0.8S33.8,250,33.5,250z"/>
	</g>
	<g>
		<path class="st195" d="M50.6,250.1c-0.7,0-1.3-0.1-1.9-0.4s-1.1-0.7-1.4-1.2c-0.4-0.5-0.5-1.2-0.5-1.9c0-1.1,0.5-2.1,1.4-2.8
			s2.3-1.1,4.2-1.1h2.9v-0.2c0-1.1-0.3-1.8-0.8-2.3s-1.3-0.7-2.4-0.7c-0.7,0-1.3,0.1-1.8,0.2s-1,0.3-1.4,0.4c-0.1,0-0.2,0-0.3,0
			c-0.2,0-0.4-0.1-0.6-0.3c-0.2-0.2-0.3-0.4-0.3-0.6c0-0.4,0.2-0.7,0.6-0.9c0.6-0.2,1.2-0.4,1.9-0.6c0.7-0.2,1.4-0.3,2.3-0.3
			c1.2,0,2.1,0.2,2.9,0.7s1.3,1.1,1.6,1.8c0.4,0.7,0.5,1.5,0.5,2.3v6.8c0,0.3-0.1,0.6-0.3,0.8s-0.5,0.3-0.8,0.3s-0.6-0.1-0.8-0.3
			s-0.3-0.5-0.3-0.8v-0.6c-0.4,0.4-1,0.9-1.7,1.2C52.7,250,51.7,250.1,50.6,250.1z M51.4,248.2c0.8,0,1.5-0.2,2.1-0.6
			c0.7-0.4,1.2-0.8,1.6-1.2v-2h-2.6c-1.1,0-2,0.1-2.7,0.4c-0.6,0.3-1,0.8-1,1.5c0,0.5,0.2,1,0.5,1.3C49.8,248,50.4,248.2,51.4,248.2
			z"/>
	</g>
	<g>
		<path class="st195" d="M63.2,250c-0.3,0-0.6-0.1-0.8-0.3s-0.3-0.5-0.3-0.8v-10.3c0-0.3,0.1-0.6,0.3-0.8s0.5-0.3,0.8-0.3
			s0.6,0.1,0.8,0.3c0.2,0.2,0.3,0.5,0.3,0.8v1c0.2-0.3,0.5-0.6,0.9-1s0.8-0.6,1.3-0.9c0.5-0.2,1.2-0.4,1.9-0.4c1,0,1.7,0.3,2.4,0.8
			c0.6,0.5,1.1,1.1,1.3,1.7c0.2-0.3,0.5-0.6,0.8-1c0.4-0.4,0.8-0.7,1.4-1s1.3-0.4,2.2-0.4c0.9,0,1.7,0.2,2.3,0.7
			c0.6,0.5,1,1.1,1.3,1.8s0.4,1.4,0.4,2.1v6.9c0,0.3-0.1,0.6-0.3,0.8c-0.2,0.2-0.5,0.3-0.8,0.3s-0.6-0.1-0.8-0.3s-0.3-0.5-0.3-0.8
			v-6.5c0-1-0.2-1.8-0.5-2.3c-0.4-0.5-1-0.8-1.9-0.8c-0.6,0-1.1,0.1-1.6,0.3c-0.4,0.2-0.8,0.5-1.1,0.9c-0.3,0.4-0.6,0.7-0.8,1.1v7.2
			c0,0.3-0.1,0.6-0.3,0.8s-0.5,0.3-0.8,0.3s-0.6-0.1-0.8-0.3s-0.3-0.5-0.3-0.8v-6.5c0-1-0.2-1.8-0.5-2.3c-0.4-0.5-1-0.8-1.9-0.8
			c-0.6,0-1.1,0.1-1.6,0.3c-0.4,0.2-0.8,0.5-1.1,0.9c-0.3,0.4-0.6,0.7-0.8,1.1v7.2c0,0.3-0.1,0.6-0.3,0.8S63.5,250,63.2,250z"/>
	</g>
	<g>
		<path class="st195" d="M96,250.1c-0.7,0-1.3-0.1-1.9-0.4s-1.1-0.7-1.4-1.2c-0.4-0.5-0.5-1.2-0.5-1.9c0-1.1,0.5-2.1,1.4-2.8
			s2.3-1.1,4.2-1.1h2.9v-0.2c0-1.1-0.3-1.8-0.8-2.3s-1.3-0.7-2.4-0.7c-0.7,0-1.3,0.1-1.8,0.2s-1,0.3-1.4,0.4c-0.1,0-0.2,0-0.3,0
			c-0.2,0-0.4-0.1-0.6-0.3s-0.3-0.4-0.3-0.6c0-0.4,0.2-0.7,0.6-0.9c0.6-0.2,1.2-0.4,1.9-0.6c0.7-0.2,1.4-0.3,2.3-0.3
			c1.2,0,2.1,0.2,2.9,0.7s1.3,1.1,1.6,1.8c0.4,0.7,0.5,1.5,0.5,2.3v6.8c0,0.3-0.1,0.6-0.3,0.8s-0.5,0.3-0.8,0.3s-0.6-0.1-0.8-0.3
			s-0.3-0.5-0.3-0.8v-0.6c-0.4,0.4-1,0.9-1.7,1.2C98,250,97.1,250.1,96,250.1z M96.8,248.2c0.8,0,1.5-0.2,2.1-0.6
			c0.7-0.4,1.2-0.8,1.6-1.2v-2h-2.6c-1.1,0-2,0.1-2.7,0.4c-0.6,0.3-1,0.8-1,1.5c0,0.5,0.2,1,0.5,1.3C95.1,248,95.8,248.2,96.8,248.2
			z"/>
	</g>
</g>
<g>
	<g>
		<path d="M32.3,511.6v-17.2h7.3c1.8,0,3.2,0.2,4,0.5s1.5,0.9,2,1.6s0.8,1.7,0.8,2.7c0,1.3-0.4,2.4-1.1,3.2s-1.9,1.4-3.4,1.6
			c0.8,0.4,1.4,0.9,1.9,1.4s1.1,1.5,2,2.8l2.1,3.4h-4.1l-2.5-3.7c-0.9-1.3-1.5-2.2-1.8-2.5s-0.7-0.6-1-0.7s-0.9-0.2-1.7-0.2h-0.7
			v7.2L32.3,511.6L32.3,511.6z M35.8,501.7h2.6c1.7,0,2.7-0.1,3.1-0.2s0.7-0.4,1-0.7s0.4-0.8,0.4-1.3c0-0.6-0.2-1-0.5-1.4
			s-0.7-0.6-1.3-0.7c-0.3,0-1.1-0.1-2.5-0.1h-2.7L35.8,501.7L35.8,501.7z"/>
	</g>
	<g>
		<path d="M53.2,503l-3-0.5c0.3-1.2,0.9-2.1,1.7-2.7s2-0.9,3.7-0.9c1.5,0,2.6,0.2,3.3,0.5s1.2,0.8,1.5,1.3s0.4,1.5,0.4,2.9v3.8
			c0,1.1,0.1,1.9,0.2,2.4s0.3,1.1,0.6,1.7h-3.3c-0.1-0.2-0.2-0.5-0.3-1c-0.1-0.2-0.1-0.3-0.1-0.4c-0.6,0.5-1.2,1-1.8,1.2
			s-1.3,0.4-2.1,0.4c-1.3,0-2.3-0.3-3-1s-1.1-1.6-1.1-2.6c0-0.7,0.2-1.3,0.5-1.9s0.8-1,1.4-1.3s1.5-0.5,2.6-0.8
			c1.5-0.3,2.6-0.6,3.2-0.8V503c0-0.6-0.2-1.1-0.5-1.4s-0.9-0.4-1.8-0.4c-0.6,0-1,0.1-1.4,0.3S53.5,502.4,53.2,503z M57.7,505.7
			c-0.4,0.1-1.1,0.3-2,0.5s-1.5,0.4-1.8,0.6c-0.4,0.3-0.6,0.7-0.6,1.2s0.2,0.9,0.5,1.2s0.8,0.5,1.3,0.5c0.6,0,1.2-0.2,1.7-0.6
			c0.4-0.3,0.7-0.7,0.8-1.1c0.1-0.3,0.1-0.8,0.1-1.6V505.7z"/>
	</g>
	<g>
		<path d="M68.6,499.2v12.1c0,1.6-0.1,2.7-0.3,3.4s-0.6,1.2-1.2,1.5s-1.3,0.6-2.3,0.6c-0.3,0-0.7,0-1.1-0.1s-0.8-0.1-1.2-0.3
			l0.6-2.8c0.2,0,0.3,0.1,0.4,0.1s0.3,0,0.4,0c0.3,0,0.6-0.1,0.8-0.2s0.4-0.3,0.4-0.5s0.1-0.8,0.1-1.8v-11.9h3.4V499.2z M65.3,497.5
			v-3h3.3v3H65.3z"/>
	</g>
	<g>
		<path d="M80.2,506l3.4-0.3c0.2,1.1,0.6,2,1.2,2.5s1.5,0.8,2.5,0.8c1.1,0,2-0.2,2.5-0.7s0.8-1,0.8-1.7c0-0.4-0.1-0.8-0.4-1
			s-0.7-0.5-1.2-0.7c-0.4-0.1-1.3-0.4-2.8-0.8c-1.9-0.5-3.2-1-3.9-1.7c-1.1-0.9-1.6-2.1-1.6-3.5c0-0.9,0.2-1.7,0.7-2.5
			s1.2-1.3,2.1-1.7s2.1-0.6,3.4-0.6c2.2,0,3.8,0.5,4.9,1.4s1.7,2.2,1.7,3.8l-3.5,0.2c-0.1-0.9-0.5-1.5-1-1.9s-1-0.6-1.9-0.6
			c-1,0-1.8,0.2-2.4,0.6c-0.4,0.3-0.6,0.6-0.6,1.1c0,0.4,0.2,0.8,0.5,1c0.4,0.4,1.5,0.8,3.2,1.1s2.9,0.8,3.7,1.2s1.4,1,1.9,1.7
			s0.7,1.7,0.7,2.7s-0.3,1.9-0.8,2.8s-1.3,1.5-2.3,1.9s-2.2,0.6-3.7,0.6c-2.2,0-3.8-0.5-5-1.5S80.4,508,80.2,506z"/>
	</g>
	<g>
		<path d="M101.6,494.5v6.3c1.1-1.2,2.3-1.9,3.8-1.9c0.8,0,1.4,0.1,2.1,0.4s1.1,0.6,1.4,1.1s0.5,0.9,0.6,1.5s0.2,1.4,0.2,2.5v7.3
			h-3.3v-6.6c0-1.3-0.1-2.1-0.2-2.5s-0.3-0.6-0.7-0.8s-0.7-0.3-1.2-0.3s-1,0.1-1.5,0.4s-0.7,0.7-0.9,1.2s-0.3,1.3-0.3,2.4v6.2h-3.3
			v-17.2H101.6z"/>
	</g>
	<g>
		<path d="M116.6,503l-3-0.5c0.3-1.2,0.9-2.1,1.7-2.7s2-0.9,3.7-0.9c1.5,0,2.6,0.2,3.3,0.5s1.2,0.8,1.5,1.3s0.4,1.5,0.4,2.9v3.8
			c0,1.1,0.1,1.9,0.2,2.4s0.3,1.1,0.6,1.7h-3.3c-0.1-0.2-0.2-0.5-0.3-1c-0.1-0.2-0.1-0.3-0.1-0.4c-0.6,0.5-1.2,1-1.8,1.2
			s-1.3,0.4-2.1,0.4c-1.3,0-2.3-0.3-3-1s-1.1-1.6-1.1-2.6c0-0.7,0.2-1.3,0.5-1.9s0.8-1,1.4-1.3s1.5-0.5,2.6-0.8
			c1.5-0.3,2.6-0.6,3.2-0.8V503c0-0.6-0.2-1.1-0.5-1.4s-0.9-0.4-1.8-0.4c-0.6,0-1,0.1-1.4,0.3S116.8,502.4,116.6,503z M121,505.7
			c-0.4,0.1-1.1,0.3-2,0.5s-1.5,0.4-1.8,0.6c-0.4,0.3-0.6,0.7-0.6,1.2s0.2,0.9,0.5,1.2s0.8,0.5,1.3,0.5c0.6,0,1.2-0.2,1.7-0.6
			c0.4-0.3,0.7-0.7,0.8-1.1c0.1-0.3,0.1-0.8,0.1-1.6V505.7z"/>
	</g>
	<g>
		<path d="M132,494.5v6.3c1.1-1.2,2.3-1.9,3.8-1.9c0.8,0,1.4,0.1,2.1,0.4s1.1,0.6,1.4,1.1s0.5,0.9,0.6,1.5s0.2,1.4,0.2,2.5v7.3h-3.3
			v-6.6c0-1.3-0.1-2.1-0.2-2.5s-0.3-0.6-0.7-0.8s-0.7-0.3-1.2-0.3s-1,0.1-1.5,0.4s-0.7,0.7-0.9,1.2s-0.3,1.3-0.3,2.4v6.2h-3.3v-17.2
			H132z"/>
	</g>
	<g>
		<path d="M144.5,497.5v-3h3.3v3H144.5z M144.5,511.6v-12.4h3.3v12.4H144.5z"/>
	</g>
</g>
<g>
	<g>
		<path class="st195" d="M54.3,541.7c-0.2,0-0.4-0.1-0.5-0.2c-0.1-0.1-0.3-0.3-0.3-0.4l-2-5.8c0-0.1,0-0.2,0-0.2
			c0-0.2,0.1-0.3,0.2-0.4c0.1-0.1,0.3-0.2,0.4-0.2c0.1,0,0.2,0,0.4,0.1s0.2,0.2,0.2,0.3l1.6,5.4l1.6-5.3c0-0.1,0.1-0.3,0.3-0.4
			c0.1-0.1,0.3-0.1,0.4-0.1c0.2,0,0.3,0,0.4,0.1c0.1,0.1,0.2,0.2,0.3,0.4l1.6,5.3l1.6-5.4c0-0.1,0.1-0.2,0.2-0.3s0.2-0.1,0.4-0.1
			s0.3,0.1,0.4,0.2c0.1,0.1,0.2,0.3,0.2,0.4c0,0.1,0,0.2,0,0.2l-2,5.8c-0.1,0.2-0.2,0.3-0.3,0.4c-0.1,0.1-0.3,0.2-0.5,0.2
			s-0.4-0.1-0.5-0.2c-0.1-0.1-0.3-0.3-0.3-0.4l-1.5-4.6l-1.5,4.6c-0.1,0.2-0.2,0.3-0.3,0.4C54.7,541.6,54.5,541.7,54.3,541.7z"/>
	</g>
	<g>
		<path class="st195" d="M66.1,541.7c-0.2,0-0.4-0.1-0.5-0.2c-0.1-0.1-0.3-0.3-0.3-0.4l-2-5.8c0-0.1,0-0.2,0-0.2
			c0-0.2,0.1-0.3,0.2-0.4c0.1-0.1,0.3-0.2,0.4-0.2c0.1,0,0.2,0,0.4,0.1s0.2,0.2,0.2,0.3l1.6,5.4l1.6-5.3c0-0.1,0.1-0.3,0.3-0.4
			c0.1-0.1,0.3-0.1,0.4-0.1c0.2,0,0.3,0,0.4,0.1s0.2,0.2,0.3,0.4l1.6,5.3l1.6-5.4c0-0.1,0.1-0.2,0.2-0.3s0.2-0.1,0.4-0.1
			c0.2,0,0.3,0.1,0.4,0.2c0.1,0.1,0.2,0.3,0.2,0.4c0,0.1,0,0.2,0,0.2l-2,5.8c-0.1,0.2-0.2,0.3-0.3,0.4c-0.1,0.1-0.3,0.2-0.5,0.2
			s-0.4-0.1-0.5-0.2c-0.1-0.1-0.3-0.3-0.3-0.4l-1.5-4.6l-1.5,4.6c-0.1,0.2-0.2,0.3-0.3,0.4C66.5,541.6,66.3,541.7,66.1,541.7z"/>
	</g>
	<g>
		<path class="st195" d="M77.9,541.7c-0.2,0-0.4-0.1-0.5-0.2c-0.1-0.1-0.3-0.3-0.3-0.4l-2-5.8c0-0.1,0-0.2,0-0.2
			c0-0.2,0.1-0.3,0.2-0.4c0.1-0.1,0.3-0.2,0.4-0.2s0.2,0,0.4,0.1s0.2,0.2,0.2,0.3l1.6,5.4l1.6-5.3c0-0.1,0.1-0.3,0.3-0.4
			c0.1-0.1,0.3-0.1,0.4-0.1c0.2,0,0.3,0,0.4,0.1s0.2,0.2,0.3,0.4l1.6,5.3l1.6-5.4c0-0.1,0.1-0.2,0.2-0.3s0.2-0.1,0.4-0.1
			c0.2,0,0.3,0.1,0.4,0.2c0.1,0.1,0.2,0.3,0.2,0.4c0,0.1,0,0.2,0,0.2l-2,5.8c-0.1,0.2-0.2,0.3-0.3,0.4c-0.1,0.1-0.3,0.2-0.5,0.2
			s-0.4-0.1-0.5-0.2c-0.1-0.1-0.3-0.3-0.3-0.4l-1.5-4.6l-1.5,4.6c-0.1,0.2-0.2,0.3-0.3,0.4C78.3,541.6,78.1,541.7,77.9,541.7z"/>
	</g>
	<g>
		<path class="st195" d="M87.6,541.7c-0.2,0-0.4-0.1-0.6-0.2c-0.2-0.2-0.2-0.3-0.2-0.6v-0.1c0-0.2,0.1-0.4,0.2-0.6
			c0.2-0.2,0.3-0.2,0.6-0.2h0.1c0.2,0,0.4,0.1,0.6,0.2c0.2,0.2,0.2,0.3,0.2,0.6v0.1c0,0.2-0.1,0.4-0.2,0.6
			C88.1,541.7,88,541.7,87.6,541.7L87.6,541.7z"/>
	</g>
	<g>
		<path class="st195" d="M92,541.7c-0.2,0-0.3-0.1-0.4-0.2c-0.1-0.1-0.2-0.3-0.2-0.4v-6c0-0.2,0.1-0.3,0.2-0.5s0.3-0.2,0.4-0.2
			c0.2,0,0.3,0.1,0.5,0.2s0.2,0.3,0.2,0.5v0.6c0.3-0.3,0.6-0.6,0.9-0.9c0.4-0.3,0.8-0.4,1.3-0.4H95c0.2,0,0.3,0.1,0.4,0.2
			c0.1,0.1,0.2,0.3,0.2,0.4c0,0.2-0.1,0.3-0.2,0.4s-0.3,0.2-0.5,0.2h-0.1c-0.5,0-0.9,0.1-1.2,0.3c-0.4,0.2-0.7,0.5-0.9,0.9v4.3
			c0,0.2-0.1,0.3-0.2,0.4C92.3,541.6,92.2,541.7,92,541.7z"/>
	</g>
	<g>
		<path class="st195" d="M99.2,541.8c-0.4,0-0.8-0.1-1.1-0.3c-0.3-0.2-0.6-0.4-0.8-0.7c-0.2-0.3-0.3-0.7-0.3-1.1
			c0-0.7,0.3-1.2,0.8-1.6s1.3-0.6,2.4-0.6h1.7v-0.1c0-0.6-0.2-1.1-0.5-1.3c-0.3-0.3-0.8-0.4-1.4-0.4c-0.4,0-0.7,0-1,0.1
			s-0.6,0.1-0.8,0.2c-0.1,0-0.1,0-0.2,0s-0.3-0.1-0.4-0.2c-0.1-0.1-0.2-0.2-0.2-0.4c0-0.3,0.1-0.4,0.4-0.5s0.7-0.3,1.1-0.4
			c0.4-0.1,0.8-0.1,1.3-0.1c0.7,0,1.2,0.1,1.7,0.4c0.4,0.3,0.7,0.6,1,1c0.2,0.4,0.3,0.9,0.3,1.3v4c0,0.2-0.1,0.3-0.2,0.4
			c-0.1,0.1-0.3,0.2-0.5,0.2s-0.3-0.1-0.4-0.2c-0.1-0.1-0.2-0.3-0.2-0.4v-0.4c-0.3,0.3-0.6,0.5-1,0.7
			C100.4,541.7,99.9,541.8,99.2,541.8z M99.7,540.6c0.4,0,0.8-0.1,1.2-0.3s0.7-0.5,0.9-0.7v-1.2h-1.5c-0.7,0-1.2,0.1-1.5,0.3
			s-0.6,0.5-0.6,0.9c0,0.3,0.1,0.6,0.3,0.8C98.7,540.5,99.1,540.6,99.7,540.6z"/>
	</g>
	<g>
		<path class="st195" d="M105.5,545c-0.3,0-0.6,0-0.9-0.1c-0.2-0.1-0.4-0.2-0.4-0.5c0-0.1,0.1-0.3,0.2-0.4s0.2-0.2,0.4-0.2
			c0.1,0,0.1,0,0.2,0s0.1,0,0.2,0c0.2,0,0.4,0,0.6-0.1s0.2-0.3,0.2-0.7v-8c0-0.2,0.1-0.3,0.2-0.5c0.1-0.1,0.3-0.2,0.4-0.2
			c0.2,0,0.3,0.1,0.5,0.2c0.1,0.1,0.2,0.3,0.2,0.5v8c0,0.5-0.1,1-0.4,1.4C106.6,544.8,106.2,545,105.5,545z M106.6,533
			c-0.2,0-0.4-0.1-0.5-0.2c-0.1-0.1-0.2-0.3-0.2-0.5v-0.1c0-0.2,0.1-0.4,0.2-0.5s0.3-0.2,0.5-0.2h0.1c0.2,0,0.4,0.1,0.5,0.2
			c0.1,0.1,0.2,0.3,0.2,0.5v0.1c0,0.2-0.1,0.4-0.2,0.5C107.1,533,106.9,533,106.6,533L106.6,533z"/>
	</g>
	<g>
		<path class="st195" d="M112.5,541.8c-0.5,0-1-0.1-1.4-0.2c-0.4-0.1-0.8-0.3-1.2-0.5c-0.2-0.1-0.2-0.3-0.2-0.5
			c0-0.1,0.1-0.3,0.2-0.4c0.1-0.1,0.2-0.2,0.4-0.2c0.1,0,0.2,0,0.3,0.1c0.3,0.1,0.5,0.2,0.8,0.3s0.7,0.1,1.1,0.1
			c0.5,0,0.9-0.1,1.2-0.3s0.4-0.4,0.4-0.7c0-0.2-0.1-0.4-0.3-0.5c-0.2-0.1-0.5-0.2-0.8-0.3s-0.7-0.2-1-0.3s-0.7-0.2-1-0.4
			s-0.6-0.4-0.8-0.6c-0.2-0.3-0.3-0.6-0.3-1c0-0.6,0.2-1.2,0.7-1.6s1.1-0.6,2-0.6c0.4,0,0.7,0,1.1,0.1s0.7,0.1,0.9,0.3
			c0.1,0,0.2,0.1,0.3,0.2s0.1,0.2,0.1,0.3s-0.1,0.3-0.2,0.4c-0.1,0.1-0.2,0.2-0.4,0.2h-0.1h-0.1c-0.2-0.1-0.5-0.1-0.7-0.2
			s-0.6-0.1-0.9-0.1c-0.5,0-0.9,0.1-1.2,0.3c-0.3,0.2-0.4,0.4-0.4,0.7c0,0.2,0.1,0.4,0.3,0.6c0.2,0.1,0.5,0.2,0.8,0.3s0.7,0.2,1,0.2
			s0.7,0.2,1,0.4s0.6,0.4,0.8,0.6c0.2,0.3,0.3,0.6,0.3,1.1c0,0.6-0.2,1.1-0.7,1.5C114.1,541.6,113.4,541.8,112.5,541.8z"/>
	</g>
	<g>
		<path class="st195" d="M118.3,541.7c-0.2,0-0.3-0.1-0.4-0.2c-0.1-0.1-0.2-0.3-0.2-0.4V532c0-0.2,0.1-0.3,0.2-0.5s0.3-0.2,0.4-0.2
			c0.2,0,0.3,0.1,0.5,0.2s0.2,0.3,0.2,0.5v3.7c0.3-0.3,0.7-0.6,1.1-0.9c0.4-0.3,0.9-0.4,1.5-0.4c0.5,0,1,0.1,1.4,0.4
			c0.4,0.2,0.7,0.6,0.9,1c0.2,0.4,0.3,0.9,0.3,1.4v4c0,0.2-0.1,0.3-0.2,0.4c-0.1,0.1-0.3,0.2-0.5,0.2s-0.3-0.1-0.4-0.2
			c-0.1-0.1-0.2-0.3-0.2-0.4v-3.8c0-0.5-0.1-1-0.4-1.3c-0.2-0.3-0.6-0.5-1.2-0.5c-0.5,0-0.9,0.1-1.3,0.4c-0.4,0.3-0.7,0.6-1,0.9v4.2
			c0,0.2-0.1,0.3-0.2,0.4C118.6,541.6,118.5,541.7,118.3,541.7z"/>
	</g>
	<g>
		<path class="st195" d="M128.7,541.8c-0.4,0-0.8-0.1-1.1-0.3c-0.3-0.2-0.6-0.4-0.8-0.7c-0.2-0.3-0.3-0.7-0.3-1.1
			c0-0.7,0.3-1.2,0.8-1.6s1.3-0.6,2.4-0.6h1.7v-0.1c0-0.6-0.2-1.1-0.5-1.3c-0.3-0.3-0.8-0.4-1.4-0.4c-0.4,0-0.7,0-1,0.1
			s-0.6,0.1-0.8,0.2c-0.1,0-0.1,0-0.2,0s-0.3-0.1-0.4-0.2c-0.1-0.1-0.2-0.2-0.2-0.4c0-0.3,0.1-0.4,0.4-0.5s0.7-0.3,1.1-0.4
			c0.4-0.1,0.8-0.1,1.3-0.1c0.7,0,1.2,0.1,1.7,0.4c0.4,0.3,0.7,0.6,1,1c0.2,0.4,0.3,0.9,0.3,1.3v4c0,0.2-0.1,0.3-0.2,0.4
			c-0.1,0.1-0.3,0.2-0.5,0.2s-0.3-0.1-0.4-0.2c-0.1-0.1-0.2-0.3-0.2-0.4v-0.4c-0.3,0.3-0.6,0.5-1,0.7
			C129.9,541.7,129.4,541.8,128.7,541.8z M129.2,540.6c0.4,0,0.8-0.1,1.2-0.3s0.7-0.5,0.9-0.7v-1.2h-1.5c-0.7,0-1.2,0.1-1.5,0.3
			s-0.6,0.5-0.6,0.9c0,0.3,0.1,0.6,0.3,0.8C128.2,540.5,128.6,540.6,129.2,540.6z"/>
	</g>
	<g>
		<path class="st195" d="M136.1,541.7c-0.2,0-0.3-0.1-0.4-0.2c-0.1-0.1-0.2-0.3-0.2-0.4V532c0-0.2,0.1-0.3,0.2-0.5s0.3-0.2,0.4-0.2
			c0.2,0,0.3,0.1,0.5,0.2s0.2,0.3,0.2,0.5v3.7c0.3-0.3,0.7-0.6,1.1-0.9c0.4-0.3,0.9-0.4,1.5-0.4c0.5,0,1,0.1,1.4,0.4
			c0.4,0.2,0.7,0.6,0.9,1s0.3,0.9,0.3,1.4v4c0,0.2-0.1,0.3-0.2,0.4c-0.1,0.1-0.3,0.2-0.5,0.2s-0.3-0.1-0.4-0.2
			c-0.1-0.1-0.2-0.3-0.2-0.4v-3.8c0-0.5-0.1-1-0.4-1.3c-0.2-0.3-0.6-0.5-1.2-0.5c-0.5,0-0.9,0.1-1.3,0.4c-0.4,0.3-0.7,0.6-1,0.9v4.2
			c0,0.2-0.1,0.3-0.2,0.4C136.4,541.6,136.3,541.7,136.1,541.7z"/>
	</g>
	<g>
		<path class="st195" d="M145.3,533c-0.2,0-0.4-0.1-0.5-0.2s-0.2-0.3-0.2-0.5v-0.1c0-0.2,0.1-0.4,0.2-0.5c0.1-0.1,0.3-0.2,0.5-0.2
			h0.1c0.2,0,0.4,0.1,0.5,0.2c0.1,0.1,0.2,0.3,0.2,0.5v0.1c0,0.2-0.1,0.4-0.2,0.5S145.6,533,145.3,533L145.3,533z M145.3,541.7
			c-0.2,0-0.3-0.1-0.4-0.2c-0.1-0.1-0.2-0.3-0.2-0.4v-6c0-0.2,0.1-0.3,0.2-0.5c0.1-0.1,0.3-0.2,0.4-0.2c0.2,0,0.3,0.1,0.5,0.2
			c0.1,0.1,0.2,0.3,0.2,0.5v6c0,0.2-0.1,0.3-0.2,0.4C145.6,541.6,145.5,541.7,145.3,541.7z"/>
	</g>
	<g>
		<path class="st195" d="M149.5,541.7c-0.2,0-0.4-0.1-0.6-0.2c-0.2-0.2-0.2-0.3-0.2-0.6v-0.1c0-0.2,0.1-0.4,0.2-0.6
			c0.2-0.2,0.3-0.2,0.6-0.2h0.1c0.2,0,0.4,0.1,0.6,0.2c0.2,0.2,0.2,0.3,0.2,0.6v0.1c0,0.2-0.1,0.4-0.2,0.6c-0.2,0.2-0.3,0.2-0.6,0.2
			H149.5z"/>
	</g>
	<g>
		<path class="st195" d="M156.4,541.8c-0.7,0-1.3-0.1-1.8-0.4s-1-0.7-1.4-1.3c-0.3-0.6-0.5-1.2-0.5-2s0.2-1.5,0.5-2
			c0.3-0.6,0.8-1,1.4-1.3s1.2-0.4,1.8-0.4s1,0.1,1.4,0.2c0.4,0.1,0.7,0.3,0.9,0.5c0.2,0.1,0.3,0.3,0.3,0.5c0,0.1-0.1,0.3-0.2,0.4
			c-0.1,0.1-0.2,0.2-0.4,0.2c-0.1,0-0.2,0-0.3-0.1c-0.2-0.1-0.5-0.2-0.7-0.3s-0.5-0.1-0.9-0.1c-0.8,0-1.4,0.2-1.9,0.7
			s-0.7,1.1-0.7,1.8s0.2,1.4,0.7,1.8c0.5,0.5,1.1,0.7,1.9,0.7c0.4,0,0.7,0,0.9-0.1s0.5-0.2,0.7-0.3c0.1-0.1,0.2-0.1,0.3-0.1
			s0.3,0.1,0.4,0.2c0.1,0.1,0.2,0.2,0.2,0.4s-0.1,0.4-0.3,0.5s-0.5,0.3-0.9,0.4C157.4,541.7,156.9,541.8,156.4,541.8z"/>
	</g>
	<g>
		<path class="st195" d="M164.3,541.8c-0.7,0-1.3-0.2-1.9-0.5c-0.5-0.3-1-0.7-1.3-1.3s-0.4-1.2-0.4-1.9s0.1-1.4,0.4-1.9
			c0.3-0.6,0.7-1,1.3-1.3c0.5-0.3,1.2-0.5,1.9-0.5s1.3,0.2,1.9,0.5c0.5,0.3,1,0.7,1.3,1.3s0.4,1.2,0.4,1.9s-0.1,1.4-0.4,1.9
			c-0.3,0.6-0.7,1-1.3,1.3C165.7,541.6,165,541.8,164.3,541.8z M164.3,540.6c0.4,0,0.7-0.1,1.1-0.3c0.4-0.2,0.7-0.4,0.9-0.8
			s0.4-0.9,0.4-1.5s-0.1-1.1-0.4-1.5c-0.2-0.4-0.5-0.6-0.9-0.8s-0.7-0.2-1.1-0.2s-0.7,0.1-1.1,0.2c-0.4,0.2-0.7,0.4-0.9,0.8
			c-0.2,0.4-0.3,0.9-0.3,1.5s0.1,1.1,0.3,1.5s0.5,0.7,0.9,0.8S164,540.6,164.3,540.6z"/>
	</g>
	<g>
		<path class="st195" d="M171,541.7c-0.2,0-0.3-0.1-0.4-0.2c-0.1-0.1-0.2-0.3-0.2-0.4v-6c0-0.2,0.1-0.3,0.2-0.5s0.3-0.2,0.4-0.2
			c0.2,0,0.3,0.1,0.5,0.2s0.2,0.3,0.2,0.5v0.6c0.1-0.2,0.3-0.4,0.5-0.6c0.2-0.2,0.5-0.4,0.8-0.5s0.7-0.2,1.1-0.2
			c0.6,0,1,0.1,1.4,0.4c0.4,0.3,0.6,0.6,0.8,1c0.1-0.2,0.3-0.4,0.5-0.6c0.2-0.2,0.5-0.4,0.8-0.6c0.3-0.2,0.8-0.3,1.3-0.3
			c0.6,0,1,0.1,1.3,0.4c0.3,0.3,0.6,0.6,0.8,1s0.2,0.8,0.2,1.2v4c0,0.2-0.1,0.3-0.2,0.4c-0.1,0.1-0.3,0.2-0.5,0.2s-0.3-0.1-0.4-0.2
			c-0.1-0.1-0.2-0.3-0.2-0.4v-3.8c0-0.6-0.1-1-0.3-1.3s-0.6-0.4-1.1-0.4c-0.4,0-0.7,0.1-0.9,0.2c-0.3,0.1-0.5,0.3-0.6,0.5
			c-0.2,0.2-0.3,0.4-0.5,0.6v4.2c0,0.2-0.1,0.3-0.2,0.4c-0.1,0.1-0.3,0.2-0.5,0.2s-0.3-0.1-0.4-0.2c-0.1-0.1-0.2-0.3-0.2-0.4v-3.8
			c0-0.6-0.1-1-0.3-1.3s-0.6-0.4-1.1-0.4c-0.4,0-0.7,0.1-0.9,0.2c-0.3,0.1-0.5,0.3-0.6,0.5c-0.2,0.2-0.3,0.4-0.5,0.6v4.2
			c0,0.2-0.1,0.3-0.2,0.4C171.3,541.6,171.2,541.7,171,541.7z"/>
	</g>
	<g>
		<path class="st195" d="M184.6,541.7c-0.2,0-0.4-0.1-0.6-0.2c-0.2-0.2-0.2-0.3-0.2-0.6v-0.1c0-0.2,0.1-0.4,0.2-0.6
			c0.2-0.2,0.3-0.2,0.6-0.2h0.1c0.2,0,0.4,0.1,0.6,0.2c0.2,0.2,0.2,0.3,0.2,0.6v0.1c0,0.2-0.1,0.4-0.2,0.6c-0.2,0.2-0.3,0.2-0.6,0.2
			H184.6z"/>
	</g>
	<g>
		<path class="st195" d="M188.9,541.7c-0.2,0-0.3-0.1-0.4-0.2c-0.1-0.1-0.2-0.3-0.2-0.4v-6c0-0.2,0.1-0.3,0.2-0.5
			c0.1-0.1,0.3-0.2,0.4-0.2c0.2,0,0.3,0.1,0.5,0.2c0.1,0.1,0.2,0.3,0.2,0.5v0.6c0.3-0.3,0.7-0.6,1.1-0.9c0.4-0.3,0.9-0.4,1.5-0.4
			c0.5,0,1,0.1,1.4,0.4c0.4,0.2,0.7,0.6,0.9,1s0.3,0.9,0.3,1.4v4c0,0.2-0.1,0.3-0.2,0.4c-0.1,0.1-0.3,0.2-0.5,0.2s-0.3-0.1-0.4-0.2
			c-0.1-0.1-0.2-0.3-0.2-0.4v-3.8c0-0.5-0.1-1-0.4-1.3c-0.2-0.3-0.6-0.5-1.2-0.5c-0.5,0-0.9,0.1-1.3,0.4c-0.4,0.3-0.7,0.6-1,0.9v4.2
			c0,0.2-0.1,0.3-0.2,0.4C189.2,541.6,189.1,541.7,188.9,541.7z"/>
	</g>
	<g>
		<path class="st195" d="M198.1,544.9c-0.2,0-0.3-0.1-0.4-0.2s-0.2-0.3-0.2-0.5V535c0-0.2,0.1-0.3,0.2-0.4c0.1-0.1,0.3-0.2,0.4-0.2
			c0.2,0,0.3,0.1,0.5,0.2c0.1,0.1,0.2,0.3,0.2,0.4v0.4c0.3-0.3,0.7-0.6,1.1-0.8c0.4-0.2,0.8-0.3,1.3-0.3c0.6,0,1.1,0.1,1.6,0.4
			c0.5,0.3,0.9,0.7,1.3,1.3s0.5,1.2,0.5,2s-0.2,1.5-0.5,2s-0.8,1-1.3,1.3s-1.1,0.4-1.6,0.4s-0.9-0.1-1.3-0.3s-0.8-0.4-1.1-0.8v3.6
			c0,0.2-0.1,0.3-0.2,0.5C198.5,544.9,198.3,544.9,198.1,544.9z M201,540.6c0.7,0,1.2-0.2,1.6-0.6c0.4-0.4,0.7-1.1,0.7-1.9
			c0-0.8-0.2-1.5-0.7-1.9c-0.4-0.4-1-0.6-1.6-0.6c-0.5,0-0.9,0.1-1.2,0.3c-0.4,0.2-0.7,0.5-1,0.7v2.9c0.3,0.3,0.6,0.5,1,0.7
			C200.1,540.5,200.5,540.6,201,540.6z"/>
	</g>
</g>
<g>
	<g>
		<path class="st196" d="M36.7,532.8c-1.2,0.3-2.2,1.1-2.9,2.2c0.6,0.4,1.3,0.6,2,0.8C36,534.6,36.3,533.6,36.7,532.8L36.7,532.8z
			 M37.8,532.6c-0.5,0.9-0.9,2.1-1.1,3.3c0.5,0.1,1,0.1,1.6,0.1c0.5,0,0.9,0,1.4-0.1c-0.2-1.2-0.5-2.3-0.9-3.3c-0.2,0-0.4,0-0.6,0
			C38,532.6,37.9,532.6,37.8,532.6L37.8,532.6z M35.7,536.6c-0.8-0.2-1.6-0.5-2.3-0.9c-0.3,0.6-0.4,1.3-0.4,2s0.2,1.4,0.4,2.1
			c0.7-0.4,1.5-0.7,2.3-0.9C35.6,538.1,35.6,537.3,35.7,536.6L35.7,536.6z M36.6,538.7c-0.1-0.7-0.1-1.3,0-1.9
			c0.6,0.1,1.1,0.1,1.7,0.1c0.5,0,1,0,1.5-0.1c0,0.6,0,1.3,0,2c-0.5-0.1-1-0.1-1.5-0.1C37.7,538.6,37.1,538.6,36.6,538.7L36.6,538.7
			z M35.8,539.8c-0.7,0.2-1.4,0.4-2,0.8c0.7,1,1.7,1.7,2.9,2.1C36.3,541.7,36,540.7,35.8,539.8L35.8,539.8z M37.8,542.8
			c-0.6-1-0.9-2.1-1.1-3.2c0.5-0.1,1-0.1,1.5-0.1s0.9,0,1.4,0.1c-0.2,1.1-0.5,2.1-0.9,3.1c-0.2,0-0.4,0-0.6,0
			C38,542.8,37.9,542.8,37.8,542.8L37.8,542.8z M40.6,538.9c0.1-0.8,0.1-1.6,0-2.3c0.8-0.2,1.6-0.5,2.2-0.9c0.3,0.6,0.4,1.3,0.4,2
			s-0.2,1.5-0.4,2.1C42.1,539.4,41.4,539.1,40.6,538.9L40.6,538.9z M39.8,532.8c1.1,0.4,2,1.1,2.6,2c-0.5,0.3-1.2,0.6-1.9,0.8
			C40.3,534.7,40.1,533.7,39.8,532.8L39.8,532.8z M33,540.8c1.1,1.7,3,2.9,5.1,2.9c3.3,0,6-2.7,6-6s-2.7-6-6-6s-6,2.7-6,6
			c0,1,0.2,1.9,0.7,2.8c0,0.1,0,0.2,0.1,0.2C32.9,540.7,32.9,540.8,33,540.8L33,540.8z M40.5,539.8c0.7,0.2,1.3,0.4,1.9,0.8
			c-0.6,0.9-1.5,1.6-2.6,2C40.1,541.6,40.3,540.7,40.5,539.8L40.5,539.8z"/>
	</g>
</g>
<g>
	<g>
		<path class="st195" d="M55.3,565.8c-0.7,0-1.3-0.2-1.9-0.5c-0.5-0.3-1-0.7-1.3-1.3s-0.4-1.2-0.4-1.9s0.1-1.4,0.4-1.9
			c0.3-0.6,0.7-1,1.3-1.3c0.5-0.3,1.2-0.5,1.9-0.5s1.3,0.2,1.9,0.5c0.5,0.3,1,0.7,1.3,1.3s0.4,1.2,0.4,1.9s-0.1,1.4-0.4,1.9
			c-0.3,0.6-0.7,1-1.3,1.3C56.7,565.6,56.1,565.8,55.3,565.8z M55.3,564.6c0.4,0,0.7-0.1,1.1-0.3c0.4-0.2,0.7-0.4,0.9-0.8
			s0.4-0.9,0.4-1.5s-0.1-1.1-0.4-1.5c-0.2-0.4-0.5-0.6-0.9-0.8s-0.7-0.2-1.1-0.2s-0.7,0.1-1.1,0.2c-0.4,0.2-0.7,0.4-0.9,0.8
			c-0.2,0.4-0.3,0.9-0.3,1.5s0.1,1.1,0.3,1.5s0.5,0.7,0.9,0.8S55,564.6,55.3,564.6z"/>
	</g>
	<g>
		<path class="st195" d="M62,565.7c-0.2,0-0.3-0.1-0.4-0.2c-0.1-0.1-0.2-0.3-0.2-0.4v-6c0-0.2,0.1-0.3,0.2-0.5
			c0.1-0.1,0.3-0.2,0.4-0.2c0.2,0,0.3,0.1,0.5,0.2c0.1,0.1,0.2,0.3,0.2,0.5v0.6c0.3-0.3,0.7-0.6,1.1-0.9c0.4-0.3,0.9-0.4,1.5-0.4
			c0.5,0,1,0.1,1.4,0.4c0.4,0.2,0.7,0.6,0.9,1c0.2,0.4,0.3,0.9,0.3,1.4v4c0,0.2-0.1,0.3-0.2,0.4c-0.1,0.1-0.3,0.2-0.5,0.2
			s-0.3-0.1-0.4-0.2c-0.1-0.1-0.2-0.3-0.2-0.4v-3.8c0-0.5-0.1-1-0.4-1.3c-0.2-0.3-0.6-0.5-1.2-0.5c-0.5,0-0.9,0.1-1.3,0.4
			c-0.4,0.3-0.7,0.6-1,0.9v4.2c0,0.2-0.1,0.3-0.2,0.4C62.4,565.6,62.2,565.7,62,565.7z"/>
	</g>
	<g>
		<path class="st195" d="M73.8,565.8c-1.1,0-2-0.3-2.7-1c-0.6-0.6-1-1.6-1-2.7c0-0.6,0.1-1.2,0.4-1.8c0.2-0.6,0.6-1,1.1-1.4
			s1.1-0.5,1.9-0.5c0.7,0,1.3,0.2,1.8,0.5s0.9,0.8,1.1,1.3c0.3,0.5,0.4,1.1,0.4,1.7c0,0.2-0.1,0.3-0.2,0.4c-0.1,0.1-0.3,0.2-0.5,0.2
			h-4.7c0.1,0.6,0.3,1.1,0.7,1.5c0.4,0.4,1,0.6,1.7,0.6c0.4,0,0.8,0,1.1-0.1c0.3-0.1,0.6-0.2,0.8-0.3c0.1,0,0.2-0.1,0.3-0.1
			c0.1,0,0.3,0.1,0.4,0.2c0.1,0.1,0.2,0.2,0.2,0.4c0,0.1,0,0.2-0.1,0.3s-0.2,0.2-0.3,0.2c-0.3,0.2-0.6,0.3-1,0.4
			C74.9,565.7,74.4,565.8,73.8,565.8z M71.5,561.5h4.1c0-0.5-0.2-0.9-0.4-1.2c-0.2-0.3-0.5-0.5-0.8-0.7c-0.3-0.1-0.6-0.2-0.9-0.2
			s-0.6,0.1-0.9,0.2c-0.3,0.1-0.6,0.4-0.8,0.7S71.5,561,71.5,561.5z"/>
	</g>
	<g>
		<path class="st195" d="M80.4,565.7c-0.2,0-0.3-0.1-0.4-0.2c-0.1-0.1-0.2-0.3-0.2-0.4v-5.5H79c-0.1,0-0.3-0.1-0.4-0.2
			s-0.2-0.2-0.2-0.4s0.1-0.3,0.2-0.4s0.2-0.2,0.4-0.2h0.8v-0.8c0-0.6,0.1-1.1,0.3-1.4c0.2-0.4,0.5-0.6,0.8-0.8s0.7-0.2,1-0.2
			c0.2,0,0.5,0,0.7,0.1s0.4,0.1,0.6,0.2c0.1,0,0.2,0.1,0.2,0.2s0.1,0.2,0.1,0.3s0,0.3-0.1,0.4s-0.2,0.2-0.4,0.2c-0.1,0-0.2,0-0.3,0
			s-0.2,0-0.4,0c-0.3,0-0.6,0.1-0.8,0.2s-0.3,0.5-0.3,1v0.8H83c0.2,0,0.3,0.1,0.4,0.2s0.2,0.2,0.2,0.4c0,0.1-0.1,0.3-0.2,0.4
			s-0.2,0.2-0.4,0.2h-1.8v5.5c0,0.2-0.1,0.3-0.2,0.4C80.8,565.6,80.6,565.7,80.4,565.7z"/>
	</g>
	<g>
		<path class="st195" d="M85.9,557c-0.2,0-0.4-0.1-0.5-0.2s-0.2-0.3-0.2-0.5v-0.1c0-0.2,0.1-0.4,0.2-0.5s0.3-0.2,0.5-0.2H86
			c0.2,0,0.4,0.1,0.5,0.2c0.1,0.1,0.2,0.3,0.2,0.5v0.1c0,0.2-0.1,0.4-0.2,0.5S86.2,557,85.9,557L85.9,557z M85.9,565.7
			c-0.2,0-0.3-0.1-0.4-0.2c-0.1-0.1-0.2-0.3-0.2-0.4v-6c0-0.2,0.1-0.3,0.2-0.5c0.1-0.1,0.3-0.2,0.4-0.2c0.2,0,0.3,0.1,0.5,0.2
			c0.1,0.1,0.2,0.3,0.2,0.5v6c0,0.2-0.1,0.3-0.2,0.4C86.3,565.6,86.1,565.7,85.9,565.7z"/>
	</g>
	<g>
		<path class="st195" d="M90.1,565.7c-0.2,0-0.3-0.1-0.4-0.2c-0.1-0.1-0.2-0.3-0.2-0.4v-6c0-0.2,0.1-0.3,0.2-0.5
			c0.1-0.1,0.3-0.2,0.4-0.2c0.2,0,0.3,0.1,0.5,0.2c0.1,0.1,0.2,0.3,0.2,0.5v0.6c0.3-0.3,0.7-0.6,1.1-0.9c0.4-0.3,0.9-0.4,1.5-0.4
			c0.5,0,1,0.1,1.4,0.4c0.4,0.2,0.7,0.6,0.9,1c0.2,0.4,0.3,0.9,0.3,1.4v4c0,0.2-0.1,0.3-0.2,0.4c-0.1,0.1-0.3,0.2-0.5,0.2
			s-0.3-0.1-0.4-0.2c-0.1-0.1-0.2-0.3-0.2-0.4v-3.8c0-0.5-0.1-1-0.4-1.3c-0.2-0.3-0.6-0.5-1.2-0.5c-0.5,0-0.9,0.1-1.3,0.4
			c-0.4,0.3-0.7,0.6-1,0.9v4.2c0,0.2-0.1,0.3-0.2,0.4C90.5,565.6,90.3,565.7,90.1,565.7z"/>
	</g>
	<g>
		<path class="st195" d="M101.9,565.8c-1.1,0-2-0.3-2.7-1c-0.6-0.6-1-1.6-1-2.7c0-0.6,0.1-1.2,0.4-1.8c0.2-0.6,0.6-1,1.1-1.4
			s1.1-0.5,1.9-0.5c0.7,0,1.3,0.2,1.8,0.5s0.9,0.8,1.1,1.3c0.3,0.5,0.4,1.1,0.4,1.7c0,0.2-0.1,0.3-0.2,0.4c-0.1,0.1-0.3,0.2-0.5,0.2
			h-4.7c0.1,0.6,0.3,1.1,0.7,1.5c0.4,0.4,1,0.6,1.7,0.6c0.4,0,0.8,0,1.1-0.1c0.3-0.1,0.6-0.2,0.8-0.3c0.1,0,0.2-0.1,0.3-0.1
			c0.1,0,0.3,0.1,0.4,0.2c0.1,0.1,0.2,0.2,0.2,0.4c0,0.1,0,0.2-0.1,0.3s-0.2,0.2-0.3,0.2c-0.3,0.2-0.6,0.3-1,0.4
			C103,565.7,102.5,565.8,101.9,565.8z M99.6,561.5h4.1c0-0.5-0.2-0.9-0.4-1.2c-0.2-0.3-0.5-0.5-0.8-0.7c-0.3-0.1-0.6-0.2-0.9-0.2
			s-0.6,0.1-0.9,0.2c-0.3,0.1-0.6,0.4-0.8,0.7S99.6,561,99.6,561.5z"/>
	</g>
	<g>
		<path class="st195" d="M110.3,565.8c-0.6,0-1.1-0.1-1.6-0.4c-0.5-0.3-0.9-0.7-1.3-1.3s-0.5-1.2-0.5-2s0.2-1.5,0.5-2s0.8-1,1.3-1.3
			s1.1-0.4,1.6-0.4s0.9,0.1,1.3,0.3s0.7,0.4,1.1,0.8V556c0-0.2,0.1-0.3,0.2-0.5s0.3-0.2,0.5-0.2s0.3,0.1,0.4,0.2s0.2,0.3,0.2,0.5
			v9.1c0,0.2-0.1,0.3-0.2,0.4c-0.1,0.1-0.3,0.2-0.4,0.2c-0.2,0-0.3-0.1-0.5-0.2c-0.1-0.1-0.2-0.3-0.2-0.4v-0.4
			c-0.3,0.3-0.7,0.6-1.1,0.8C111.2,565.7,110.8,565.8,110.3,565.8z M110.5,564.6c0.5,0,0.9-0.1,1.2-0.3c0.4-0.2,0.7-0.5,1-0.7v-2.9
			c-0.3-0.3-0.6-0.5-1-0.7s-0.8-0.3-1.2-0.3c-0.7,0-1.2,0.2-1.6,0.6c-0.4,0.4-0.7,1.1-0.7,1.9c0,0.8,0.2,1.4,0.7,1.9
			C109.3,564.4,109.8,564.6,110.5,564.6z"/>
	</g>
	<g>
		<path class="st195" d="M120.1,565.8c-1.1,0-2-0.3-2.7-1c-0.6-0.6-1-1.6-1-2.7c0-0.6,0.1-1.2,0.4-1.8c0.2-0.6,0.6-1,1.1-1.4
			s1.1-0.5,1.9-0.5c0.7,0,1.3,0.2,1.8,0.5s0.9,0.8,1.1,1.3c0.3,0.5,0.4,1.1,0.4,1.7c0,0.2-0.1,0.3-0.2,0.4c-0.1,0.1-0.3,0.2-0.5,0.2
			h-4.7c0.1,0.6,0.3,1.1,0.7,1.5c0.4,0.4,1,0.6,1.7,0.6c0.4,0,0.8,0,1.1-0.1c0.3-0.1,0.6-0.2,0.8-0.3c0.1,0,0.2-0.1,0.3-0.1
			c0.1,0,0.3,0.1,0.4,0.2c0.1,0.1,0.2,0.2,0.2,0.4c0,0.1,0,0.2-0.1,0.3s-0.2,0.2-0.3,0.2c-0.3,0.2-0.6,0.3-1,0.4
			C121.2,565.7,120.7,565.8,120.1,565.8z M117.7,561.5h4.1c0-0.5-0.2-0.9-0.4-1.2c-0.2-0.3-0.5-0.5-0.8-0.7
			c-0.3-0.1-0.6-0.2-0.9-0.2s-0.6,0.1-0.9,0.2c-0.3,0.1-0.6,0.4-0.8,0.7S117.8,561,117.7,561.5z"/>
	</g>
	<g>
		<path class="st195" d="M127.8,565.8c-0.5,0-1-0.1-1.4-0.2c-0.4-0.1-0.8-0.3-1.2-0.5c-0.2-0.1-0.2-0.3-0.2-0.5
			c0-0.1,0.1-0.3,0.2-0.4c0.1-0.1,0.2-0.2,0.4-0.2c0.1,0,0.2,0,0.3,0.1c0.3,0.1,0.5,0.2,0.8,0.3s0.7,0.1,1.1,0.1
			c0.5,0,0.9-0.1,1.2-0.3s0.4-0.4,0.4-0.7c0-0.2-0.1-0.4-0.3-0.5s-0.5-0.2-0.8-0.3s-0.7-0.2-1-0.3s-0.7-0.2-1-0.4s-0.6-0.4-0.8-0.6
			c-0.2-0.3-0.3-0.6-0.3-1c0-0.6,0.2-1.2,0.7-1.6s1.1-0.6,2-0.6c0.4,0,0.7,0,1.1,0.1s0.7,0.1,0.9,0.3c0.1,0,0.2,0.1,0.3,0.2
			s0.1,0.2,0.1,0.3s-0.1,0.3-0.2,0.4c-0.1,0.1-0.2,0.2-0.4,0.2h-0.1h-0.1c-0.2-0.1-0.5-0.1-0.7-0.2s-0.6-0.1-0.9-0.1
			c-0.5,0-0.9,0.1-1.2,0.3c-0.3,0.2-0.4,0.4-0.4,0.7c0,0.2,0.1,0.4,0.3,0.6c0.2,0.1,0.5,0.2,0.8,0.3s0.7,0.2,1,0.2s0.7,0.2,1,0.4
			s0.6,0.4,0.8,0.6c0.2,0.3,0.3,0.6,0.3,1.1c0,0.6-0.2,1.1-0.7,1.5C129.4,565.6,128.7,565.8,127.8,565.8z"/>
	</g>
	<g>
		<path class="st195" d="M133.5,557c-0.2,0-0.4-0.1-0.5-0.2s-0.2-0.3-0.2-0.5v-0.1c0-0.2,0.1-0.4,0.2-0.5c0.1-0.1,0.3-0.2,0.5-0.2
			h0.1c0.2,0,0.4,0.1,0.5,0.2c0.1,0.1,0.2,0.3,0.2,0.5v0.1c0,0.2-0.1,0.4-0.2,0.5S133.8,557,133.5,557L133.5,557z M133.6,565.7
			c-0.2,0-0.3-0.1-0.4-0.2c-0.1-0.1-0.2-0.3-0.2-0.4v-6c0-0.2,0.1-0.3,0.2-0.5c0.1-0.1,0.3-0.2,0.4-0.2c0.2,0,0.3,0.1,0.5,0.2
			c0.1,0.1,0.2,0.3,0.2,0.5v6c0,0.2-0.1,0.3-0.2,0.4C133.9,565.6,133.7,565.7,133.6,565.7z"/>
	</g>
	<g>
		<path class="st195" d="M140.4,569c-0.6,0-1.1-0.1-1.7-0.2c-0.6-0.1-1-0.3-1.3-0.5c-0.1,0-0.1-0.1-0.2-0.2
			c-0.1-0.1-0.1-0.2-0.1-0.3s0.1-0.3,0.2-0.4s0.2-0.2,0.4-0.2h0.1h0.1c0.3,0.1,0.6,0.3,1,0.4c0.4,0.1,0.8,0.2,1.3,0.2
			c1.4,0,2.1-0.8,2.1-2.3v-0.9c-0.3,0.3-0.6,0.6-1,0.8s-0.8,0.3-1.4,0.3c-0.4,0-0.8-0.1-1.2-0.2s-0.8-0.4-1.1-0.7s-0.6-0.7-0.8-1.1
			c-0.2-0.5-0.3-1-0.3-1.6s0.1-1.2,0.3-1.6c0.2-0.5,0.5-0.8,0.8-1.1s0.7-0.5,1.1-0.7s0.8-0.2,1.2-0.2c0.5,0,1,0.1,1.4,0.3
			s0.7,0.5,1,0.8v-0.3c0-0.2,0.1-0.3,0.2-0.5s0.3-0.2,0.4-0.2c0.2,0,0.3,0.1,0.5,0.2s0.2,0.3,0.2,0.5v6.3c0,1.2-0.3,2.1-0.9,2.7
			S141.5,569,140.4,569z M140.3,564.5c0.5,0,0.9-0.1,1.2-0.3s0.6-0.5,0.9-0.7v-2.9c-0.3-0.3-0.6-0.5-0.9-0.7s-0.7-0.3-1.2-0.3
			c-0.4,0-0.8,0.1-1.2,0.3s-0.7,0.5-0.9,0.8c-0.2,0.4-0.3,0.8-0.3,1.4c0,0.6,0.1,1,0.3,1.4s0.5,0.6,0.9,0.8
			C139.5,564.4,139.9,564.5,140.3,564.5z"/>
	</g>
	<g>
		<path class="st195" d="M147.3,565.7c-0.2,0-0.3-0.1-0.4-0.2c-0.1-0.1-0.2-0.3-0.2-0.4v-6c0-0.2,0.1-0.3,0.2-0.5
			c0.1-0.1,0.3-0.2,0.4-0.2c0.2,0,0.3,0.1,0.5,0.2c0.1,0.1,0.2,0.3,0.2,0.5v0.6c0.3-0.3,0.7-0.6,1.1-0.9c0.4-0.3,0.9-0.4,1.5-0.4
			c0.5,0,1,0.1,1.4,0.4c0.4,0.2,0.7,0.6,0.9,1s0.3,0.9,0.3,1.4v4c0,0.2-0.1,0.3-0.2,0.4c-0.1,0.1-0.3,0.2-0.5,0.2s-0.3-0.1-0.4-0.2
			c-0.1-0.1-0.2-0.3-0.2-0.4v-3.8c0-0.5-0.1-1-0.4-1.3c-0.2-0.3-0.6-0.5-1.2-0.5c-0.5,0-0.9,0.1-1.3,0.4c-0.4,0.3-0.7,0.6-1,0.9v4.2
			c0,0.2-0.1,0.3-0.2,0.4C147.6,565.6,147.5,565.7,147.3,565.7z"/>
	</g>
	<g>
		<path class="st195" d="M159.1,565.8c-1.1,0-2-0.3-2.7-1c-0.6-0.6-1-1.6-1-2.7c0-0.6,0.1-1.2,0.4-1.8c0.2-0.6,0.6-1,1.1-1.4
			s1.1-0.5,1.9-0.5c0.7,0,1.3,0.2,1.8,0.5s0.9,0.8,1.1,1.3c0.3,0.5,0.4,1.1,0.4,1.7c0,0.2-0.1,0.3-0.2,0.4c-0.1,0.1-0.3,0.2-0.5,0.2
			h-4.7c0.1,0.6,0.3,1.1,0.7,1.5s1,0.6,1.7,0.6c0.4,0,0.8,0,1.1-0.1s0.6-0.2,0.8-0.3c0.1,0,0.2-0.1,0.3-0.1s0.3,0.1,0.4,0.2
			c0.1,0.1,0.2,0.2,0.2,0.4c0,0.1,0,0.2-0.1,0.3s-0.2,0.2-0.3,0.2c-0.3,0.2-0.6,0.3-1,0.4C160.2,565.7,159.7,565.8,159.1,565.8z
			 M156.7,561.5h4.1c0-0.5-0.2-0.9-0.4-1.2s-0.5-0.5-0.8-0.7c-0.3-0.1-0.6-0.2-0.9-0.2s-0.6,0.1-0.9,0.2c-0.3,0.1-0.6,0.4-0.8,0.7
			S156.8,561,156.7,561.5z"/>
	</g>
	<g>
		<path class="st195" d="M165.1,565.7c-0.2,0-0.3-0.1-0.4-0.2c-0.1-0.1-0.2-0.3-0.2-0.4v-6c0-0.2,0.1-0.3,0.2-0.5s0.3-0.2,0.4-0.2
			c0.2,0,0.3,0.1,0.5,0.2s0.2,0.3,0.2,0.5v0.6c0.3-0.3,0.6-0.6,0.9-0.9c0.4-0.3,0.8-0.4,1.3-0.4h0.1c0.2,0,0.3,0.1,0.4,0.2
			c0.1,0.1,0.2,0.3,0.2,0.4c0,0.2-0.1,0.3-0.2,0.4s-0.3,0.2-0.5,0.2h-0.1c-0.5,0-0.9,0.1-1.2,0.3c-0.4,0.2-0.7,0.5-0.9,0.9v4.3
			c0,0.2-0.1,0.3-0.2,0.4C165.5,565.6,165.3,565.7,165.1,565.7z"/>
	</g>
	<g>
		<path class="st195" d="M175,566.8c-0.7,0-1.4-0.1-2-0.4c-0.6-0.3-1.1-0.6-1.6-1.1c-0.4-0.5-0.8-1-1-1.5c-0.2-0.6-0.3-1.2-0.3-1.8
			c0-0.8,0.2-1.6,0.5-2.3s0.7-1.4,1.3-1.9s1.2-1,1.9-1.3s1.5-0.5,2.3-0.5c0.7,0,1.4,0.1,2,0.4c0.6,0.2,1.2,0.6,1.7,1
			s0.9,0.9,1.2,1.5s0.4,1.2,0.4,2c0,0.4,0,0.8-0.1,1.2s-0.2,0.8-0.4,1.1s-0.5,0.6-0.8,0.8s-0.7,0.3-1.2,0.3s-0.9-0.1-1.1-0.3
			c-0.2-0.2-0.4-0.5-0.4-0.7c-0.3,0.4-0.6,0.6-1,0.8s-0.8,0.3-1.3,0.3c-0.8,0-1.4-0.2-1.8-0.7c-0.4-0.5-0.6-1.1-0.6-1.8
			s0.2-1.3,0.5-1.9s0.7-0.9,1.2-1.2s1-0.4,1.6-0.4c0.4,0,0.8,0.1,1.1,0.2c0.3,0.2,0.5,0.3,0.7,0.5v-0.2c0-0.1,0.1-0.2,0.2-0.3
			s0.2-0.1,0.3-0.1s0.3,0,0.4,0.1c0.1,0.1,0.1,0.2,0.1,0.4l0,0v0.1l-0.5,2.7c0,0.1,0,0.3-0.1,0.4c0,0.2,0,0.3,0,0.5s0.1,0.4,0.2,0.6
			c0.1,0.2,0.3,0.3,0.5,0.3c0.6,0,1-0.3,1.3-0.8s0.5-1.2,0.5-2c0-0.7-0.1-1.3-0.4-1.8c-0.3-0.5-0.6-0.9-1.1-1.3
			c-0.4-0.3-0.9-0.6-1.5-0.8c-0.5-0.2-1.1-0.3-1.7-0.3c-0.7,0-1.4,0.1-2,0.4c-0.6,0.3-1.2,0.7-1.7,1.1s-0.9,1-1.1,1.7
			s-0.4,1.3-0.4,2c0,0.5,0.1,1,0.3,1.5s0.5,0.9,0.8,1.3c0.4,0.4,0.8,0.7,1.3,0.9s1.1,0.4,1.8,0.4c0.6,0,1.2-0.1,1.6-0.2
			s0.9-0.3,1.3-0.5c0.1,0,0.1,0,0.2,0c0.1,0,0.2,0,0.3,0.1s0.1,0.1,0.1,0.2c0,0.1-0.1,0.3-0.2,0.3c-0.4,0.2-0.9,0.4-1.4,0.5
			C176.4,566.7,175.7,566.8,175,566.8z M175.2,563.3c0.3,0,0.6-0.1,0.9-0.2c0.3-0.1,0.5-0.3,0.7-0.6s0.4-0.7,0.4-1.2l0.2-1.3
			c-0.2-0.2-0.4-0.3-0.6-0.4c-0.3-0.1-0.6-0.2-1-0.2s-0.8,0.1-1.1,0.3c-0.4,0.2-0.6,0.4-0.9,0.8c-0.2,0.3-0.3,0.8-0.3,1.2
			c0,0.6,0.2,1,0.5,1.2C174.4,563.2,174.8,563.3,175.2,563.3z"/>
	</g>
	<g>
		<path class="st195" d="M187.2,569c-0.6,0-1.1-0.1-1.7-0.2c-0.6-0.1-1-0.3-1.3-0.5c-0.1,0-0.1-0.1-0.2-0.2
			c-0.1-0.1-0.1-0.2-0.1-0.3s0.1-0.3,0.2-0.4s0.2-0.2,0.4-0.2h0.1h0.1c0.3,0.1,0.6,0.3,1,0.4c0.4,0.1,0.8,0.2,1.3,0.2
			c1.4,0,2.1-0.8,2.1-2.3v-0.9c-0.3,0.3-0.6,0.6-1,0.8s-0.8,0.3-1.4,0.3c-0.4,0-0.8-0.1-1.2-0.2s-0.8-0.4-1.1-0.7s-0.6-0.7-0.8-1.1
			c-0.2-0.5-0.3-1-0.3-1.6s0.1-1.2,0.3-1.6c0.2-0.5,0.5-0.8,0.8-1.1s0.7-0.5,1.1-0.7s0.8-0.2,1.2-0.2c0.5,0,1,0.1,1.4,0.3
			s0.7,0.5,1,0.8v-0.3c0-0.2,0.1-0.3,0.2-0.5s0.3-0.2,0.4-0.2c0.2,0,0.3,0.1,0.5,0.2s0.2,0.3,0.2,0.5v6.3c0,1.2-0.3,2.1-0.9,2.7
			S188.2,569,187.2,569z M187,564.5c0.5,0,0.9-0.1,1.2-0.3s0.6-0.5,0.9-0.7v-2.9c-0.3-0.3-0.6-0.5-0.9-0.7s-0.7-0.3-1.2-0.3
			c-0.4,0-0.8,0.1-1.2,0.3s-0.7,0.5-0.9,0.8c-0.2,0.4-0.3,0.8-0.3,1.4c0,0.6,0.1,1,0.3,1.4s0.5,0.6,0.9,0.8
			C186.2,564.4,186.6,564.5,187,564.5z"/>
	</g>
	<g>
		<path class="st195" d="M194,565.7c-0.2,0-0.3-0.1-0.4-0.2c-0.1-0.1-0.2-0.3-0.2-0.4v-6c0-0.2,0.1-0.3,0.2-0.5s0.3-0.2,0.4-0.2
			c0.2,0,0.3,0.1,0.5,0.2s0.2,0.3,0.2,0.5v0.6c0.1-0.2,0.3-0.4,0.5-0.6c0.2-0.2,0.5-0.4,0.8-0.5s0.7-0.2,1.1-0.2
			c0.6,0,1,0.1,1.4,0.4c0.4,0.3,0.6,0.6,0.8,1c0.1-0.2,0.3-0.4,0.5-0.6c0.2-0.2,0.5-0.4,0.8-0.6c0.3-0.2,0.8-0.3,1.3-0.3
			c0.6,0,1,0.1,1.3,0.4c0.3,0.3,0.6,0.6,0.8,1s0.2,0.8,0.2,1.2v4c0,0.2-0.1,0.3-0.2,0.4c-0.1,0.1-0.3,0.2-0.5,0.2s-0.3-0.1-0.4-0.2
			c-0.1-0.1-0.2-0.3-0.2-0.4v-3.8c0-0.6-0.1-1-0.3-1.3s-0.6-0.4-1.1-0.4c-0.4,0-0.7,0.1-0.9,0.2c-0.3,0.1-0.5,0.3-0.6,0.5
			c-0.2,0.2-0.3,0.4-0.5,0.6v4.2c0,0.2-0.1,0.3-0.2,0.4c-0.1,0.1-0.3,0.2-0.5,0.2s-0.3-0.1-0.4-0.2c-0.1-0.1-0.2-0.3-0.2-0.4v-3.8
			c0-0.6-0.1-1-0.3-1.3s-0.6-0.4-1.1-0.4c-0.4,0-0.7,0.1-0.9,0.2c-0.3,0.1-0.5,0.3-0.6,0.5c-0.2,0.2-0.3,0.4-0.5,0.6v4.2
			c0,0.2-0.1,0.3-0.2,0.4C194.3,565.6,194.2,565.7,194,565.7z"/>
	</g>
	<g>
		<path class="st195" d="M208.7,565.8c-0.4,0-0.8-0.1-1.1-0.3s-0.6-0.4-0.8-0.7s-0.3-0.7-0.3-1.1c0-0.7,0.3-1.2,0.8-1.6
			s1.3-0.6,2.4-0.6h1.7v-0.1c0-0.6-0.2-1.1-0.5-1.3c-0.3-0.3-0.8-0.4-1.4-0.4c-0.4,0-0.7,0-1,0.1s-0.6,0.1-0.8,0.2
			c-0.1,0-0.1,0-0.2,0c-0.1,0-0.3-0.1-0.4-0.2c-0.1-0.1-0.2-0.2-0.2-0.4c0-0.3,0.1-0.4,0.4-0.5c0.3-0.1,0.7-0.3,1.1-0.4
			c0.4-0.1,0.8-0.1,1.3-0.1c0.7,0,1.2,0.1,1.7,0.4c0.4,0.3,0.7,0.6,1,1c0.2,0.4,0.3,0.9,0.3,1.3v4c0,0.2-0.1,0.3-0.2,0.4
			c-0.1,0.1-0.3,0.2-0.5,0.2s-0.3-0.1-0.4-0.2c-0.1-0.1-0.2-0.3-0.2-0.4v-0.4c-0.3,0.3-0.6,0.5-1,0.7
			C209.9,565.7,209.4,565.8,208.7,565.8z M209.2,564.6c0.4,0,0.8-0.1,1.2-0.3s0.7-0.5,0.9-0.7v-1.2h-1.5c-0.7,0-1.2,0.1-1.5,0.3
			s-0.6,0.5-0.6,0.9c0,0.3,0.1,0.6,0.3,0.8C208.3,564.5,208.6,564.6,209.2,564.6z"/>
	</g>
	<g>
		<path class="st195" d="M216.1,557c-0.2,0-0.4-0.1-0.5-0.2s-0.2-0.3-0.2-0.5v-0.1c0-0.2,0.1-0.4,0.2-0.5c0.1-0.1,0.3-0.2,0.5-0.2
			h0.1c0.2,0,0.4,0.1,0.5,0.2c0.1,0.1,0.2,0.3,0.2,0.5v0.1c0,0.2-0.1,0.4-0.2,0.5S216.4,557,216.1,557L216.1,557z M216.1,565.7
			c-0.2,0-0.3-0.1-0.4-0.2c-0.1-0.1-0.2-0.3-0.2-0.4v-6c0-0.2,0.1-0.3,0.2-0.5c0.1-0.1,0.3-0.2,0.4-0.2c0.2,0,0.3,0.1,0.5,0.2
			c0.1,0.1,0.2,0.3,0.2,0.5v6c0,0.2-0.1,0.3-0.2,0.4C216.5,565.6,216.3,565.7,216.1,565.7z"/>
	</g>
	<g>
		<path class="st195" d="M220.3,565.7c-0.2,0-0.3-0.1-0.4-0.2c-0.1-0.1-0.2-0.3-0.2-0.4V556c0-0.2,0.1-0.3,0.2-0.5s0.3-0.2,0.4-0.2
			c0.2,0,0.3,0.1,0.5,0.2c0.1,0.1,0.2,0.3,0.2,0.5v9.1c0,0.2-0.1,0.3-0.2,0.4C220.6,565.6,220.5,565.7,220.3,565.7z"/>
	</g>
	<g>
		<path class="st195" d="M224.5,565.7c-0.2,0-0.4-0.1-0.6-0.2c-0.2-0.2-0.2-0.3-0.2-0.6v-0.1c0-0.2,0.1-0.4,0.2-0.6
			c0.2-0.2,0.3-0.2,0.6-0.2h0.1c0.2,0,0.4,0.1,0.6,0.2c0.2,0.2,0.2,0.3,0.2,0.6v0.1c0,0.2-0.1,0.4-0.2,0.6c-0.2,0.2-0.3,0.2-0.6,0.2
			H224.5z"/>
	</g>
	<g>
		<path class="st195" d="M231.4,565.8c-0.7,0-1.3-0.1-1.8-0.4s-1-0.7-1.4-1.3c-0.3-0.6-0.5-1.2-0.5-2s0.2-1.5,0.5-2
			c0.3-0.6,0.8-1,1.4-1.3s1.2-0.4,1.8-0.4s1,0.1,1.4,0.2c0.4,0.1,0.7,0.3,0.9,0.5c0.2,0.1,0.3,0.3,0.3,0.5c0,0.1-0.1,0.3-0.2,0.4
			c-0.1,0.1-0.2,0.2-0.4,0.2c-0.1,0-0.2,0-0.3-0.1c-0.2-0.1-0.5-0.2-0.7-0.3s-0.5-0.1-0.9-0.1c-0.8,0-1.4,0.2-1.9,0.7
			s-0.7,1.1-0.7,1.8s0.2,1.4,0.7,1.8c0.5,0.5,1.1,0.7,1.9,0.7c0.4,0,0.7,0,0.9-0.1s0.5-0.2,0.7-0.3c0.1-0.1,0.2-0.1,0.3-0.1
			s0.3,0.1,0.4,0.2c0.1,0.1,0.2,0.2,0.2,0.4s-0.1,0.4-0.3,0.5s-0.5,0.3-0.9,0.4C232.4,565.7,231.9,565.8,231.4,565.8z"/>
	</g>
	<g>
		<path class="st195" d="M239.3,565.8c-0.7,0-1.3-0.2-1.9-0.5c-0.5-0.3-1-0.7-1.3-1.3s-0.4-1.2-0.4-1.9s0.1-1.4,0.4-1.9
			c0.3-0.6,0.7-1,1.3-1.3c0.5-0.3,1.2-0.5,1.9-0.5s1.3,0.2,1.9,0.5c0.5,0.3,1,0.7,1.3,1.3s0.4,1.2,0.4,1.9s-0.1,1.4-0.4,1.9
			c-0.3,0.6-0.7,1-1.3,1.3C240.7,565.6,240,565.8,239.3,565.8z M239.3,564.6c0.4,0,0.7-0.1,1.1-0.3c0.4-0.2,0.7-0.4,0.9-0.8
			s0.4-0.9,0.4-1.5s-0.1-1.1-0.4-1.5c-0.2-0.4-0.5-0.6-0.9-0.8s-0.7-0.2-1.1-0.2s-0.7,0.1-1.1,0.2c-0.4,0.2-0.7,0.4-0.9,0.8
			c-0.2,0.4-0.3,0.9-0.3,1.5s0.1,1.1,0.3,1.5s0.5,0.7,0.9,0.8S239,564.6,239.3,564.6z"/>
	</g>
	<g>
		<path class="st195" d="M246,565.7c-0.2,0-0.3-0.1-0.4-0.2c-0.1-0.1-0.2-0.3-0.2-0.4v-6c0-0.2,0.1-0.3,0.2-0.5s0.3-0.2,0.4-0.2
			c0.2,0,0.3,0.1,0.5,0.2s0.2,0.3,0.2,0.5v0.6c0.1-0.2,0.3-0.4,0.5-0.6c0.2-0.2,0.5-0.4,0.8-0.5s0.7-0.2,1.1-0.2
			c0.6,0,1,0.1,1.4,0.4c0.4,0.3,0.6,0.6,0.8,1c0.1-0.2,0.3-0.4,0.5-0.6c0.2-0.2,0.5-0.4,0.8-0.6c0.3-0.2,0.8-0.3,1.3-0.3
			c0.6,0,1,0.1,1.3,0.4c0.3,0.3,0.6,0.6,0.8,1c0.2,0.4,0.2,0.8,0.2,1.2v4c0,0.2-0.1,0.3-0.2,0.4c-0.1,0.1-0.3,0.2-0.5,0.2
			s-0.3-0.1-0.4-0.2c-0.1-0.1-0.2-0.3-0.2-0.4v-3.8c0-0.6-0.1-1-0.3-1.3s-0.6-0.4-1.1-0.4c-0.4,0-0.7,0.1-0.9,0.2
			c-0.3,0.1-0.5,0.3-0.6,0.5c-0.2,0.2-0.3,0.4-0.5,0.6v4.2c0,0.2-0.1,0.3-0.2,0.4c-0.1,0.1-0.3,0.2-0.5,0.2s-0.3-0.1-0.4-0.2
			c-0.1-0.1-0.2-0.3-0.2-0.4v-3.8c0-0.6-0.1-1-0.3-1.3s-0.6-0.4-1.1-0.4c-0.4,0-0.7,0.1-0.9,0.2c-0.3,0.1-0.5,0.3-0.6,0.5
			c-0.2,0.2-0.3,0.4-0.5,0.6v4.2c0,0.2-0.1,0.3-0.2,0.4C246.3,565.6,246.2,565.7,246,565.7z"/>
	</g>
</g>
<g>
	<g>
		<g>
			<path class="st195" d="M42.4,557h-8.6c-0.9,0-1.7,0.8-1.7,1.7v6c0,0.9,0.8,1.7,1.7,1.7h8.6c0.9,0,1.7-0.8,1.7-1.7v-6
				C44.1,557.7,43.3,557,42.4,557z M43.2,558.4v6.4l-2.7-4L43.2,558.4z M37.3,562.3c0.2,0.2,0.5,0.3,0.8,0.3s0.6-0.1,0.8-0.3l1-0.9
				l2.8,4.2h-9.3l2.8-4.2L37.3,562.3z M42.6,557.8l-4.2,3.8c-0.1,0.1-0.3,0.1-0.5,0l-4.3-3.8H42.6z M35.6,560.8l-2.7,4v-6.4
				L35.6,560.8z"/>
		</g>
	</g>
</g>
<g>
	<g>
		<g>
			<path d="M299.1,462.6v6c0,1.1-0.9,2-2,2s-2-0.9-2-2v-6c0-1.1,0.9-2,2-2S299.1,461.5,299.1,462.6z M311.1,466.6v14
				c0,7.7-6.3,14-14,14s-14-6.3-14-14v-14c0-7,5.1-12.8,12-13.8v-3.2c0-2.8,2.2-5,5-5c0.6,0,1-0.4,1-1v-3c0-1.1,0.9-2,2-2s2,0.9,2,2
				v3c0,2.8-2.2,5-5,5c-0.6,0-1,0.4-1,1v3.2C306,453.8,311.1,459.7,311.1,466.6z M307.1,466.6c0-5.5-4.5-10-10-10s-10,4.5-10,10v14
				c0,5.5,4.5,10,10,10s10-4.5,10-10V466.6z"/>
		</g>
	</g>
</g>
<g>
	<g>
		<g>
			<path class="st197" d="M84,203.1L84,203.1v-4c0-13.3-10.7-24-24-24s-24,10.7-24,24v4l0,0c-4.4,3.3-5.3,9.5-2,13.9
				c1.1,1.5,2.6,2.6,4.2,3.3c0.5,1.6,2.1,2.8,3.8,2.8h2c2.2,0,4-1.8,4-4v-16c0-2.2-1.8-4-4-4h-2c-0.7,0-1.4,0.2-2,0.6v-0.6
				c0-11,9-20,20-20s20,9,20,20v0.6c-0.6-0.4-1.3-0.6-2-0.6h-2c-2.2,0-4,1.8-4,4l0,0v16c0,2.2,1.8,4,4,4h2c1.7,0,3.3-1.1,3.8-2.8
				c5.1-2.1,7.5-7.8,5.5-12.9C86.6,205.7,85.5,204.2,84,203.1z M42,203.1h2v16h-2V203.1z M38,215.5c-2.5-2.2-2.7-6-0.5-8.4
				c0.2-0.2,0.3-0.3,0.5-0.5V215.5z M78,219.1h-2v-16h2V219.1z M82,215.5v-8.9c2.5,2.2,2.7,6,0.5,8.4
				C82.3,215.2,82.2,215.4,82,215.5z"/>
		</g>
	</g>
</g>
<g>
	<g>
		<g>
			<path d="M244,144.9h11c1,0,1.9-0.8,1.9-1.9c0-1-0.8-1.9-1.9-1.9h-11c-1,0-1.9,0.8-1.9,1.9C242.1,144.1,242.9,144.9,244,144.9z"/>
		</g>
	</g>
	<g>
		<g>
			<path d="M304.4,125.9h-2.5v-10.2c0-3.7-2.7-6.9-6.3-7.6v-20c0-4.3-3.5-7.8-7.8-7.8h-82.2c-4.3,0-7.8,3.5-7.8,7.8v54.6
				c0,4.3,3.5,7.8,7.8,7.8h43.1v5.6h-16c-1,0-1.9,0.8-1.9,1.9c0,1,0.8,1.9,1.9,1.9h24.7c0.3,4,3.7,7.2,7.8,7.2h17v3.3
				c0,3.5,2.9,6.4,6.4,6.4h15.9c3.5,0,6.4-2.9,6.4-6.4v-38C310.8,128.8,308,125.9,304.4,125.9z M257.4,150.4v5.6h-5v-5.6H257.4z
				 M257.4,139.4v7.3h-51.8c-2.2,0-4-1.8-4-4v-3.3H257.4z M291.9,108h-26.7c-4.3,0-7.8,3.5-7.8,7.8v19.9h-55.8V88.1c0-2.2,1.8-4,4-4
				h82.2c2.2,0,4,1.8,4,4V108H291.9z M261.2,115.7c0-2.2,1.8-4,4-4h29c2.2,0,4,1.8,4,4v10.2h-9.6c-3.5,0-6.4,2.9-6.4,6.4v20.9h-21
				V115.7z M285.9,132.3c0-1.5,1.2-2.6,2.6-2.6h15.9c1.5,0,2.6,1.2,2.6,2.6v0.3h-21.1V132.3z M285.9,166.2v-29.8H307v29.8H285.9z
				 M307.1,169.9v0.4c0,1.5-1.2,2.6-2.6,2.6h-15.9c-1.5,0-2.6-1.2-2.6-2.6v-0.4H307.1z M279.4,159.6c0,1,0.8,1.9,1.9,1.9h0.9v1.8
				h-17c-2.2,0-4-1.8-4-4V157h21v0.7h-0.9C280.3,157.7,279.4,158.6,279.4,159.6z"/>
		</g>
	</g>
</g>
</svg>
