<?xml version="1.0" encoding="utf-8"?>
<!-- Generator: Adobe Illustrator 24.3.0, SVG Export Plug-In . SVG Version: 6.00 Build 0)  -->
<svg version="1.1" id="Layer_1" xmlns="http://www.w3.org/2000/svg" xmlns:xlink="http://www.w3.org/1999/xlink" x="0px" y="0px"
	 viewBox="0 0 48 48" style="enable-background:new 0 0 48 48;" xml:space="preserve">
<style type="text/css">
	.st0{fill-rule:evenodd;clip-rule:evenodd;}
</style>
<g>
	<path class="st0" d="M12.6,35.8c0.5-1,1-1.8,1.6-2.5c1.5-1.5,3.5-2.3,5.7-2.3h7.5c2.2,0,4.2,0.8,5.7,2.3c0.7,0.7,1.2,1.5,1.7,2.4
		c0.1,0.3,0.4,0.6,0.7,0.7c0.4,0.2,0.8,0.2,1.2,0c0.4-0.2,0.6-0.5,0.7-0.7l0,0c0.2-0.3,0.3-0.7,0.1-1l0,0c-0.5-1.3-1.3-2.4-2.3-3.3
		c-1.3-1.3-2.8-2.2-4.5-2.7l-0.2-0.1l0.2-0.2c2.5-2.1,3.9-5.1,3.9-8.3c0-6-4.9-10.8-10.8-10.8c-6,0-10.8,4.9-10.8,10.8
		c0,3.3,1.4,6.3,3.9,8.3l0.2,0.2l-0.2,0.1c-1.7,0.5-3.2,1.4-4.5,2.7c-0.9,0.9-1.6,1.9-2.3,3.3c-0.2,0.4-0.2,0.7,0,1l0,0
		c0.1,0.4,0.4,0.6,0.7,0.7c0.4,0.2,0.7,0.2,1,0C12.3,36.4,12.5,36.2,12.6,35.8z M15.9,20.3c0-4.4,3.6-8.1,8.1-8.1s8.1,3.6,8.1,8.1
		c0,4.4-3.6,8.1-8.1,8.1C19.6,28.2,15.9,24.6,15.9,20.3z"/>
	<path class="st0" d="M46.6,16c-0.1-0.4-0.4-0.6-0.7-0.8c-0.3-0.2-0.7-0.2-1,0c-0.8,0.3-1.1,1-0.8,1.7c0.8,2.2,1.2,4.6,1.2,7.1
		c0,11.7-9.5,21.2-21.2,21.2S2.8,35.7,2.8,24S12.3,2.8,24,2.8c2.4,0,4.9,0.4,7.1,1.2c0.7,0.3,1.5-0.1,1.7-0.8
		c0.3-0.7-0.1-1.5-0.8-1.7C29.3,0.5,26.6,0,24,0C10.8,0,0,10.8,0,24c0,13.2,10.8,24,24,24c13.2,0,24-10.8,24-24
		C48,21.4,47.5,18.7,46.6,16z"/>
	<path class="st0" d="M38.1,13.6c0.3,0.3,0.6,0.4,1,0.4s0.7-0.1,1-0.4l7.5-7.5c0.5-0.5,0.5-1.4,0-1.9c-0.5-0.5-1.4-0.5-1.9,0
		l-6.6,6.5l-2.8-2.8c-0.3-0.3-0.6-0.4-1-0.4s-0.7,0.1-1,0.4c-0.3,0.3-0.4,0.6-0.4,1s0.1,0.7,0.4,1l0,0L38.1,13.6z"/>
</g>
</svg>
