<?xml version="1.0" encoding="utf-8"?>
<!-- Generator: Adobe Illustrator 24.3.0, SVG Export Plug-In . SVG Version: 6.00 Build 0)  -->
<svg version="1.1" id="Layer_1" xmlns="http://www.w3.org/2000/svg" xmlns:xlink="http://www.w3.org/1999/xlink" x="0px" y="0px"
	 viewBox="0 0 48 48" style="enable-background:new 0 0 48 48;" xml:space="preserve">
<path d="M24,0C10.8,0,0,10.8,0,24s10.8,24,24,24s24-10.8,24-24S37.2,0,24,0z M35.7,19.5c0,1.3-1.1,2.4-2.4,2.4
	c-1.3,0-2.4-1.1-2.4-2.4c0-1.3,1.1-2.4,2.4-2.4C34.7,17.1,35.7,18.2,35.7,19.5z M25,2.8L25,2.8L25,2.8c2.3,0.1,4.4,0.5,6.5,1.3
	l0.1,0l0,0c1.1,2.6,1.6,5.3,1.6,8.1c0,0.6,0,1.2-0.1,1.9l0,0.1l-0.1,0c-1.9,0.1-3.6,1.4-4.4,3.2l0,0.1l-0.1,0
	c-2.3-0.5-4.4-1.4-6.4-2.6L22,15l0-0.1c0.2-0.6,0.3-1.2,0.3-1.8c0-1.6-0.7-3.1-2-4.1l-0.1-0.1l0-0.1C21.5,6.5,23.1,4.5,25,2.8z
	 M20,27.9l-0.1,0l0-0.1c-1.3-2.8-2-6-2-9.1c0-0.1,0-0.2,0-0.3l0-0.3l0.1,0c0.8-0.1,1.6-0.4,2.2-0.9l0.1,0l0.1,0
	c2.4,1.5,5.1,2.6,7.8,3.1l0.1,0l0,0.1c0.2,1.1,0.8,2.1,1.7,2.9l0.1,0.1L30,23.5c-1.3,2.1-3,4-4.9,5.5L25,29.1L24.9,29
	C23.6,27.8,21.8,27.4,20,27.9z M23.8,32.8c0,1.3-1.1,2.4-2.4,2.4c-1.3,0-2.4-1.1-2.4-2.4c0-1.3,1.1-2.4,2.4-2.4
	C22.8,30.4,23.8,31.5,23.8,32.8z M17.2,15.4c-1.3,0-2.4-1.1-2.4-2.4c0-1.3,1.1-2.4,2.4-2.4c1.3,0,2.4,1.1,2.4,2.4
	C19.6,14.4,18.5,15.4,17.2,15.4z M13.7,5.4c2.2-1.2,4.5-2,6.9-2.4L21,3l-0.2,0.3c-1.2,1.4-2.2,3-3.1,4.6l0,0.1l-0.1,0
	C16.8,7.9,16,8,15.3,8.3l-0.1,0l-0.1-0.1c-0.6-0.9-1-1.8-1.4-2.6l0-0.1L13.7,5.4z M4.4,32.2L4.4,32.2c-1.1-2.6-1.6-5.4-1.6-8.2
	c0-6.7,3.1-12.8,8.4-16.9L11.3,7l0.1,0.1c0.5,1,1,1.9,1.6,2.9l0,0.1l0,0.1C12.4,11,12.1,12,12.1,13c0,2,1.2,3.8,3,4.7l0.1,0l0,0.1
	c0,0.3,0,0.6,0,0.9c0,3.7,0.9,7.3,2.5,10.6l0,0.1l-0.1,0.1c-0.8,0.9-1.3,2.1-1.3,3.4c0,0,0,0.1,0,0.1l0,0.2l-0.1,0
	c-1.4,0.3-2.8,0.4-4.3,0.4C9.4,33.5,6.8,33.1,4.4,32.2L4.4,32.2z M34.4,42.5c-3.2,1.8-6.8,2.7-10.4,2.7c-7,0-13.6-3.5-17.6-9.4
	l-0.2-0.3l0.3,0.1c3.4,0.8,7,0.8,10.6,0l0.1,0l0,0.1c1,1.4,2.5,2.2,4.2,2.2c0.8,0,1.7-0.2,2.4-0.6l0.1,0l0.1,0.1
	c3,2.4,6.6,4.1,10.4,4.9l0.3,0.1L34.4,42.5z M44.4,18l0,0.1c0.5,1.9,0.8,3.9,0.8,5.8c0,6.1-2.6,11.8-7.2,15.9l0,0l-0.1,0
	c-4.4-0.2-8.5-1.8-12-4.5l-0.1-0.1l0.1-0.1c0.4-0.7,0.6-1.6,0.6-2.4c0-0.4-0.1-0.9-0.2-1.3l0-0.1l0.1-0.1c2.4-1.8,4.5-4.2,6.1-6.8
	l0-0.1l0.1,0c0.3,0,0.5,0.1,0.7,0.1c2.5,0,4.7-1.8,5.1-4.3l0-0.1l0.1,0c2-0.5,3.9-1.2,5.7-2.1L44.4,18z M43.4,15.4l-0.1,0.1
	c-1.6,0.9-3.3,1.6-5.1,2l-0.1,0l0-0.1c-0.5-1-1.2-1.9-2.2-2.4l-0.1,0l0-0.1c0.1-1,0.2-1.8,0.2-2.5c0-2.1-0.3-4.1-0.8-6.1l-0.1-0.3
	l0.3,0.2c3.5,2.2,6.3,5.4,8,9.2L43.4,15.4z"/>
</svg>
