<?xml version="1.0" encoding="utf-8"?>
<!-- Generator: Adobe Illustrator 24.3.0, SVG Export Plug-In . SVG Version: 6.00 Build 0)  -->
<svg version="1.1" id="Layer_1" xmlns="http://www.w3.org/2000/svg" xmlns:xlink="http://www.w3.org/1999/xlink" x="0px" y="0px"
	 viewBox="0 0 48 48" style="enable-background:new 0 0 48 48;" xml:space="preserve">
<g>
	<path d="M47.8,17.5c-0.1-1-0.3-1.9-0.6-2.8c-0.4-1.6-2-3-3.8-3.3l-0.2,0c-0.7-0.1-4.9-0.5-9.2-0.7l-1.6-0.1l2.2-1.4
		c1.1-1,1.7-2.4,1.7-3.9c0-2.9-2.5-5.3-5.6-5.3c-2.6,0-4.9,1.8-5.5,4.3L24,12l-1.4-7.7C22.1,1.8,19.8,0,17.1,0
		c-3.1,0-5.6,2.4-5.6,5.3c0,1.5,0.6,2.9,1.8,3.9l2.2,1.4l-1.6,0.1c-4.3,0.2-8.6,0.6-9.3,0.7c-1.8,0.3-3.4,1.7-3.8,3.4
		c-0.2,0.8-0.4,1.7-0.5,2.8c-0.1,1-0.2,2-0.2,2.8c0,1.7,1.2,3.1,2.9,3.5l0.4,0.1l0,0.4c-0.1,1.1-0.3,4.9-0.3,7
		c0.1,3.3,0.3,6.3,0.8,9.1c0.6,3.3,3.7,6.4,7.1,6.9c1.9,0.3,8.4,0.7,12.5,0.7h1c4.2,0,10.6-0.4,12.5-0.7c3.3-0.5,6.4-3.5,7.1-6.9
		c0.5-2.8,0.8-5.8,0.8-9.1c0-2-0.2-5.8-0.3-7l0-0.4l0.4-0.1c1.8-0.4,2.9-1.8,2.9-3.5C48,19.5,47.9,18.6,47.8,17.5z M26.8,11.1
		L28,4.8c0.3-1.3,1.5-2.2,2.9-2.2c1.6,0,2.9,1.2,2.9,2.7c0,0.6-0.2,1.3-0.7,1.7l-5.8,3.7l-0.6,0.6L26.8,11.1z M14.9,7.1
		c-0.4-0.5-0.7-1.1-0.7-1.7c0-1.5,1.3-2.7,2.9-2.7c1.4,0,2.6,0.9,2.9,2.2l1.2,6.3L14.9,7.1z M42.3,31.2c-0.1,3.2-0.3,6.1-0.8,8.7
		c-0.2,1.1-0.8,2.2-1.8,3.1c-0.9,0.9-2,1.5-3.1,1.7c-1.8,0.3-8.2,0.7-12.1,0.7h-1c-4,0-10.3-0.4-12.1-0.7c-1.1-0.2-2.2-0.8-3.2-1.7
		c-0.9-0.9-1.6-2-1.8-3.1c-0.5-2.7-0.7-5.5-0.8-8.7c0-1.3,0.1-3.8,0.3-6.8l0.1-1l0.5,0c3.7-0.1,7.5-0.1,11.2-0.2l0.5,0v14.7
		c0,1,0.6,1.9,1.5,2.3c0.8,0.4,1.7,0.3,2.3-0.2c0.5-0.4,1.1-0.9,1.8-1.5l0.3-0.3l0.3,0.3c0.7,0.6,1.2,1.1,1.8,1.5
		c0.6,0.5,1.5,0.6,2.3,0.2c0.9-0.4,1.5-1.3,1.5-2.3V23.3l0.5,0c3.7,0,7.5,0.1,11.2,0.2l0.5,0l0.1,1c0.1,2.5,0.2,4.6,0.3,6l0,0.2
		L42.3,31.2z M20.8,37.6V23.2h6.5v14.4l-0.9-0.8c-0.3-0.2-0.5-0.5-0.8-0.8c-0.4-0.4-1-0.6-1.6-0.6c-0.6,0-1.1,0.2-1.6,0.6
		c-0.3,0.3-0.6,0.5-0.8,0.8L20.8,37.6z M44.8,20.9c-0.1,0-9.3-0.3-20.7-0.3c-10.4,0-19.2,0.2-20.9,0.3l-0.3,0l-0.1-0.3
		c0-0.1-0.1-0.2-0.1-0.3c0-0.7,0.1-1.5,0.2-2.4C3,17,3.1,16.1,3.3,15.4S4.2,14.1,5,14c0.7-0.1,4.8-0.5,9-0.7l7-0.3c0,0,1.4,0,2.8,0
		h0.2c0.7,0,1.4,0,1.9,0c0.5,0,0.9,0,0.9,0l7.1,0.3c4.2,0.2,8.3,0.6,9,0.7c0.8,0.1,1.6,0.8,1.8,1.4c0.2,0.7,0.4,1.5,0.5,2.4
		c0.1,0.9,0.2,1.8,0.2,2.4l0.3,0.7L44.8,20.9z"/>
</g>
</svg>
