<svg width="4001" height="2563" viewBox="0 0 4001 2563" fill="none" xmlns="http://www.w3.org/2000/svg">
<g clip-path="url(#clip0_498_293)">
<path fill-rule="evenodd" clip-rule="evenodd" d="M4000.04 191.83V386.66L3963.68 379.64L2000.02 0L4000.04 191.83Z" fill="#142A4D" fill-opacity="0.01"/>
<path fill-rule="evenodd" clip-rule="evenodd" d="M4000.04 589.43V803.36L3855.92 745.47L2000.02 0L4000.04 589.43Z" fill="#142A4D" fill-opacity="0.01"/>
<path fill-rule="evenodd" clip-rule="evenodd" d="M4000.04 1035.06V1290.21L3680.68 1084.19L2000.02 0L4000.04 1035.06Z" fill="#142A4D" fill-opacity="0.01"/>
<path fill-rule="evenodd" clip-rule="evenodd" d="M4000.04 1579.8V1915.82L3444.33 1383.5L2000.02 0L4000.04 1579.8Z" fill="#142A4D" fill-opacity="0.01"/>
<path fill-rule="evenodd" clip-rule="evenodd" d="M4000.04 2320.88V2562.53H3813.71L3155.46 1632.5L2000.02 0L4000.04 2320.88Z" fill="#142A4D" fill-opacity="0.01"/>
<path fill-rule="evenodd" clip-rule="evenodd" d="M3468.25 2562.53H3159.62L2824.58 1822.14L2000.02 0L3468.25 2562.53Z" fill="#142A4D" fill-opacity="0.01"/>
<path fill-rule="evenodd" clip-rule="evenodd" d="M2875.82 2562.53H2610.77L2463.72 1945.52L2000.02 0L2875.82 2562.53Z" fill="#142A4D" fill-opacity="0.01"/>
<path fill-rule="evenodd" clip-rule="evenodd" d="M2356.83 2562.53H2110.28L2086 1998.17L2000.02 0L2356.83 2562.53Z" fill="#142A4D" fill-opacity="0.01"/>
<path fill-rule="evenodd" clip-rule="evenodd" d="M1865.05 2562.53H1618.04L1705.15 1978.16L2000.02 0L1865.05 2562.53Z" fill="#142A4D" fill-opacity="0.01"/>
<path fill-rule="evenodd" clip-rule="evenodd" d="M1363.15 2562.53H1096.59L1335.03 1886.23L2000.02 0L1363.15 2562.53Z" fill="#142A4D" fill-opacity="0.01"/>
<path fill-rule="evenodd" clip-rule="evenodd" d="M810.59 2562.53H498.85L989.08 1725.71L2000.02 0L810.59 2562.53Z" fill="#142A4D" fill-opacity="0.01"/>
<path fill-rule="evenodd" clip-rule="evenodd" d="M149.07 2562.53H0V2276.21L679.89 1502.44L2000.02 0L149.07 2562.53Z" fill="#142A4D" fill-opacity="0.01"/>
<path fill-rule="evenodd" clip-rule="evenodd" d="M0 1879.25V1548.77L418.7 1224.54L2000.02 0L0 1879.25Z" fill="#142A4D" fill-opacity="0.01"/>
<path fill-rule="evenodd" clip-rule="evenodd" d="M0 1263.13V1010.78L215.01 902.12L2000.02 0L0 1263.13Z" fill="#142A4D" fill-opacity="0.01"/>
<path fill-rule="evenodd" clip-rule="evenodd" d="M0 781.09V568.57L76.23 546.9L2000.02 0L0 781.09Z" fill="#142A4D" fill-opacity="0.01"/>
<path fill-rule="evenodd" clip-rule="evenodd" d="M0 366.73V172.42L7.39 171.78L2000.02 0L0 366.73Z" fill="#142A4D" fill-opacity="0.01"/>
</g>
<defs>
<clipPath id="clip0_498_293">
<rect width="4000.04" height="2562.53" fill="white"/>
</clipPath>
</defs>
</svg>
