<svg width="68" height="19" viewBox="0 0 68 19" fill="none" xmlns="http://www.w3.org/2000/svg">
<g clip-path="url(#clip0_223_174)">
<path d="M66.9853 14.7958L62.0022 11.6775C61.1097 11.6614 59.7444 11.6721 58.0816 11.7689L65.875 16.6453V16.8281C65.875 16.8281 56.3019 13.0216 46.8616 13.0216C45.135 13.0109 43.4084 13.156 41.7031 13.4625C48.96 9.93021 58.8359 9.5915 62.3156 9.5915C63.4738 9.5915 64.1697 9.62375 64.175 9.62375C64.2122 9.62375 64.2441 9.62913 64.2812 9.62913C65.4659 9.61838 66.4169 8.63451 66.4062 7.43021C66.3956 6.47859 65.7741 5.64526 64.8763 5.37107L47.1697 0.0861197C46.8191 -0.0160308 46.4525 -0.0267835 46.0966 0.0538617C45.4909 0.199023 44.9597 0.30655 44.4497 0.414077C42.3884 0.742034 40.4122 1.46784 38.6219 2.55924C37.0122 3.55924 35.5141 4.74741 34.17 6.0915C32.6878 4.75279 31.0781 3.56999 29.3622 2.55386C27.5772 1.46246 25.6009 0.736657 23.5397 0.4087C23.0297 0.301173 22.4984 0.18827 21.8928 0.0484853C21.5369 -0.0321599 21.1703 -0.0214072 20.8197 0.0807434L3.12375 5.37107C1.98688 5.71515 1.34406 6.93021 1.68406 8.08074C1.955 8.98935 2.77844 9.613 3.71875 9.62375C3.75594 9.62375 3.79312 9.62375 3.825 9.61838C3.83031 9.61838 4.52625 9.58612 5.68437 9.58612C9.16406 9.58612 19.0453 9.93021 26.2969 13.4625C24.5916 13.1614 22.865 13.0162 21.1384 13.0216C11.6981 13.0216 2.125 16.8281 2.125 16.8281V16.6453L9.87594 11.8012C8.30875 11.6936 6.98062 11.6668 6.01375 11.6721L1.02 14.7958C0.3825 15.1936 0 15.8926 0 16.6453V16.8281C0 17.5431 0.345312 18.2152 0.924375 18.6184C1.50344 19.0216 2.24187 19.1076 2.89531 18.8496C2.98562 18.8119 12.2241 15.1936 21.1384 15.1936C26.1216 15.1936 29.9997 16.3119 32.6613 18.5162C33.4369 19.1614 34.5578 19.1614 35.3387 18.5162C38.0003 16.3119 41.8784 15.1936 46.8616 15.1936C55.7759 15.1936 65.0144 18.8173 65.11 18.8496C65.7634 19.1076 66.5019 19.0216 67.0809 18.6184C67.66 18.2098 68.0053 17.5431 68.0053 16.8281V16.6453C68 15.8926 67.6175 15.1936 66.9853 14.7958ZM32.9375 15.5592C25.8719 8.12375 11.0234 7.41408 5.68437 7.41408C4.44656 7.41408 3.71875 7.45171 3.71875 7.45171L21.4253 2.16676C24.4322 2.87107 25.7337 2.87644 28.2944 4.42483C29.9572 5.4087 31.5191 6.56461 32.9375 7.88182V15.5592ZM35.0625 15.5592V8.28504C36.4331 6.7958 37.995 5.5001 39.7056 4.43021C42.2663 2.88182 43.5625 2.87644 46.5747 2.17214L64.2812 7.45171C64.2812 7.45171 63.5534 7.41408 62.3156 7.41408C56.9713 7.41408 42.1281 8.12375 35.0625 15.5592Z" fill="#ECB826"/>
</g>
<defs>
<clipPath id="clip0_223_174">
<rect width="68" height="19" fill="white"/>
</clipPath>
</defs>
</svg>
