<svg width="180" height="33" viewBox="0 0 180 33" fill="none" xmlns="http://www.w3.org/2000/svg">
<path d="M8.90667 2.47346L12.7233 0.046875L18.47 3.31149V21.6439L20.8733 23.1853L22.5367 22.1588V10.3086L20.5033 8.95558L20.55 4.71158L26.23 7.83821V23.9291L20.55 27.4764L14.6367 23.7911L14.5433 5.92319L8.90667 2.47346Z" fill="white"/>
<path d="M0 7.9762L5.91333 4.66445L11.69 7.9762V26.5441L17.51 29.6674L13.75 32.0469L7.85333 28.5467V10.4499L5.83 9.49072L3.88 10.8706L3.74333 21.3073L5.68333 22.6704L5.54333 27.4764L0 23.9762V7.9762Z" fill="white"/>
<path d="M34.3506 17.1682C34.3506 16.1922 34.5073 15.2834 34.8239 14.4387C35.1406 13.5939 35.5706 12.8569 36.1206 12.2309C36.6673 11.6015 37.3139 11.1068 38.0573 10.7399C38.8006 10.3731 39.6006 10.1913 40.4539 10.1913C41.3073 10.1913 42.0606 10.3697 42.7673 10.7264C43.4739 11.0832 44.0873 11.5611 44.6073 12.1602V10.2452H48.0906V24.034H44.6073V22.119C44.0873 22.7382 43.4739 23.2229 42.7673 23.5695C42.0606 23.9162 41.2906 24.0912 40.4539 24.0912C39.6173 24.0912 38.8006 23.9095 38.0573 23.5426C37.3139 23.1758 36.6673 22.6844 36.1206 22.0651C35.5739 21.4458 35.1406 20.7155 34.8239 19.8707C34.5073 19.026 34.3506 18.1274 34.3506 17.1682ZM37.8339 17.1682C37.8339 17.636 37.9173 18.0769 38.0839 18.4909C38.2506 18.9048 38.4873 19.2649 38.7939 19.5746C39.1006 19.8842 39.4539 20.1265 39.8539 20.3049C40.2539 20.4833 40.6939 20.5708 41.1773 20.5708C41.6606 20.5708 42.0773 20.4833 42.4873 20.3049C42.8973 20.1265 43.2539 19.8842 43.5606 19.5746C43.8673 19.2649 44.1073 18.9048 44.2839 18.4909C44.4606 18.0769 44.5473 17.636 44.5473 17.1682C44.5473 16.7004 44.4573 16.2527 44.2839 15.832C44.1073 15.4113 43.8673 15.0445 43.5606 14.7349C43.2539 14.4252 42.8973 14.1829 42.4873 14.0045C42.0773 13.8261 41.6406 13.7386 41.1773 13.7386C40.7139 13.7386 40.2539 13.8295 39.8539 14.0045C39.4539 14.1829 39.1006 14.4252 38.7939 14.7349C38.4873 15.0445 38.2506 15.4113 38.0839 15.832C37.9173 16.2527 37.8339 16.7004 37.8339 17.1682Z" fill="white"/>
<path d="M49.6539 17.1682C49.6539 16.1922 49.8106 15.2834 50.1273 14.4387C50.4439 13.5939 50.8739 12.8569 51.4239 12.2309C51.9706 11.6015 52.6173 11.1068 53.3606 10.7399C54.1039 10.3731 54.9039 10.1913 55.7573 10.1913C56.6106 10.1913 57.3539 10.3596 58.0439 10.6961C58.7306 11.0327 59.3339 11.5039 59.8573 12.103V6.33435H63.3406V24.034H59.8573V22.2065C59.3373 22.8055 58.7339 23.27 58.0439 23.5998C57.3573 23.9296 56.5939 24.0912 55.7573 24.0912C54.9206 24.0912 54.1039 23.9095 53.3606 23.5426C52.6173 23.1758 51.9706 22.6844 51.4239 22.0651C50.8773 21.4458 50.4439 20.7155 50.1273 19.8707C49.8106 19.026 49.6539 18.1274 49.6539 17.1682ZM53.1373 17.1682C53.1373 17.636 53.2206 18.0769 53.3873 18.4909C53.5539 18.9048 53.7906 19.2649 54.0973 19.5746C54.4039 19.8842 54.7573 20.1265 55.1573 20.3049C55.5573 20.4833 55.9973 20.5708 56.4806 20.5708C56.9073 20.5708 57.3173 20.4967 57.7073 20.3453C58.0973 20.1938 58.4406 19.9852 58.7373 19.7126C59.0339 19.4399 59.2806 19.1269 59.4773 18.7702C59.6706 18.4134 59.7973 18.0197 59.8539 17.5889V16.7441C59.7973 16.3301 59.6739 15.9364 59.4773 15.5628C59.2806 15.1892 59.0339 14.8695 58.7373 14.607C58.4406 14.3444 58.0973 14.1324 57.7073 13.9742C57.3173 13.816 56.9073 13.7353 56.4806 13.7353C55.9973 13.7353 55.5573 13.8261 55.1573 14.0012C54.7573 14.1795 54.4039 14.4219 54.0973 14.7315C53.7906 15.0411 53.5539 15.408 53.3873 15.8287C53.2206 16.2494 53.1373 16.697 53.1373 17.1648V17.1682Z" fill="white"/>
<path d="M67.5173 10.2452L70.4173 19.0798L73.4273 10.2452H77.1339L72.2006 24.0912H68.4673L63.7839 10.2452H67.5173Z" fill="white"/>
<path d="M77.2439 6.64398C77.2439 6.0449 77.4506 5.5367 77.8606 5.1261C78.2706 4.71214 78.7573 4.50684 79.3206 4.50684C79.9173 4.50684 80.4206 4.71214 80.8206 5.1261C81.2239 5.54007 81.4239 6.0449 81.4239 6.64398C81.4239 7.20603 81.2239 7.69404 80.8206 8.10801C80.4173 8.52198 79.9173 8.72728 79.3206 8.72728C78.7606 8.72728 78.2739 8.52198 77.8606 8.10801C77.4473 7.69404 77.2439 7.20603 77.2439 6.64398ZM81.0339 10.2452V24.034H77.5773V10.2452H81.0339Z" fill="white"/>
<path d="M88.2539 14.4118C88.2539 14.0247 88.1573 13.6983 87.9606 13.4324C87.7673 13.1665 87.5206 13.0319 87.2206 13.0319C86.9206 13.0319 86.6806 13.1598 86.4973 13.4122C86.3106 13.6646 86.2173 13.981 86.2173 14.3545C86.2173 14.7685 86.4106 15.0781 86.8039 15.2834C87.1939 15.4887 87.7406 15.6974 88.4473 15.9027C89.4306 16.1484 90.1706 16.5725 90.6639 17.1816C91.1573 17.7908 91.4039 18.649 91.4039 19.7563C91.4039 20.3554 91.2973 20.9208 91.0839 21.4458C90.8706 21.9709 90.5673 22.432 90.1773 22.8257C89.7873 23.2195 89.3306 23.5291 88.8106 23.7546C88.2906 23.9801 87.7239 24.0912 87.1106 24.0912C86.5339 24.0912 85.9873 23.9936 85.4673 23.795C84.9473 23.5998 84.4906 23.3171 84.1006 22.9503C83.7106 22.5834 83.4039 22.1391 83.1806 21.6141C82.9573 21.0891 82.8473 20.5068 82.8473 19.8707H86.3039C86.3039 20.2645 86.4106 20.5741 86.6239 20.7996C86.8373 21.0251 87.0839 21.1362 87.3639 21.1362C87.6239 21.1362 87.8573 21.0184 88.0606 20.7862C88.2639 20.5506 88.3673 20.2578 88.3673 19.901C88.3673 19.6587 88.3073 19.4568 88.1873 19.2952C88.0673 19.137 87.8939 18.9991 87.6706 18.888C87.4473 18.7769 87.1873 18.6861 86.8906 18.6221C86.5939 18.5582 86.2773 18.4774 85.9439 18.3832C85.0506 18.1577 84.3139 17.7168 83.7273 17.0605C83.1406 16.4042 82.8506 15.5392 82.8506 14.4723C82.8506 13.8531 82.9539 13.2809 83.1573 12.7559C83.3606 12.2309 83.6539 11.7799 84.0339 11.4063C84.4139 11.0327 84.8639 10.7365 85.3839 10.5211C85.9039 10.3057 86.4806 10.198 87.1106 10.198C88.4473 10.198 89.4973 10.5649 90.2606 11.3019C91.0239 12.039 91.4039 13.0756 91.4039 14.4185H88.2539V14.4118Z" fill="white"/>
<path d="M105.867 20.6852C105.031 21.9237 104.087 22.7988 103.037 23.3171C101.987 23.832 100.857 24.0912 99.6506 24.0912C98.7039 24.0912 97.8106 23.9095 96.9739 23.5426C96.1373 23.1758 95.4139 22.6844 94.8006 22.0651C94.1873 21.4458 93.7006 20.7155 93.3373 19.8707C92.9739 19.026 92.7939 18.1274 92.7939 17.1682C92.7939 16.209 92.9739 15.2834 93.3373 14.4387C93.7006 13.5939 94.1873 12.8569 94.8006 12.2309C95.4139 11.6015 96.1373 11.1068 96.9739 10.7399C97.8106 10.3731 98.7006 10.1913 99.6506 10.1913C100.857 10.1913 102.014 10.4673 103.121 11.0226C104.227 11.5779 105.197 12.5203 106.034 13.8497L98.6473 20.4631C98.8339 20.5573 99.1039 20.6213 99.4539 20.6583C99.8073 20.6953 100.161 20.6684 100.514 20.5742C101.091 20.4227 101.637 20.1669 102.157 19.8001C102.677 19.4332 103.134 18.9688 103.524 18.4067L105.864 20.6852H105.867ZM96.1139 16.6331C96.0206 17.1211 96.0273 17.5653 96.1273 17.9692C96.2306 18.3731 96.3839 18.676 96.5873 18.8846L101.494 14.2132C101.254 14.0079 100.931 13.8329 100.534 13.6915C100.134 13.5502 99.6839 13.5098 99.1839 13.5636C98.3673 13.6747 97.6873 13.9944 97.1506 14.5195C96.6106 15.0445 96.2673 15.7479 96.1206 16.6297L96.1139 16.6331Z" fill="white"/>
<path d="M110.467 6.33435V12.1299C110.987 11.5308 111.597 11.0563 112.294 10.7096C112.991 10.363 113.757 10.1879 114.594 10.1879C115.431 10.1879 116.247 10.3697 116.991 10.7365C117.734 11.1034 118.381 11.5981 118.927 12.2275C119.474 12.8569 119.907 13.5939 120.224 14.4353C120.541 15.2801 120.697 16.1888 120.697 17.1648C120.697 18.1408 120.541 19.0226 120.224 19.8674C119.907 20.7121 119.477 21.4425 118.927 22.0617C118.377 22.681 117.734 23.1724 116.991 23.5392C116.247 23.9061 115.447 24.0878 114.594 24.0878C113.741 24.0878 112.991 23.9195 112.294 23.583C111.597 23.2464 110.987 22.7753 110.467 22.1762V24.034H107.011V6.33435H110.467ZM117.241 17.1682C117.241 16.7004 117.151 16.2527 116.977 15.832C116.801 15.4113 116.561 15.0445 116.254 14.7349C115.947 14.4252 115.591 14.1829 115.181 14.0045C114.771 13.8261 114.334 13.7386 113.871 13.7386C113.407 13.7386 112.971 13.8295 112.561 14.0045C112.151 14.1829 111.794 14.4185 111.487 14.7079C111.181 15.0007 110.941 15.3474 110.764 15.7479C110.587 16.1518 110.491 16.5792 110.471 17.0268V17.1682C110.471 17.636 110.557 18.0769 110.734 18.4909C110.911 18.9048 111.151 19.2649 111.457 19.5746C111.764 19.8842 112.121 20.1265 112.531 20.3049C112.941 20.4833 113.384 20.5708 113.867 20.5708C114.351 20.5708 114.767 20.4833 115.177 20.3049C115.587 20.1265 115.944 19.8842 116.251 19.5746C116.557 19.2649 116.797 18.9048 116.974 18.4909C117.151 18.0769 117.237 17.636 117.237 17.1682H117.241Z" fill="white"/>
<path d="M126.074 10.2452V12.1871C126.464 11.625 126.961 11.1505 127.564 10.7668C128.167 10.3831 128.871 10.1913 129.667 10.1913V13.7386C129.241 13.7386 128.817 13.8194 128.401 13.9776C127.984 14.1358 127.607 14.3579 127.271 14.6372C126.937 14.92 126.657 15.2464 126.434 15.6234C126.211 16.0003 126.091 16.3941 126.071 16.8047V24.0373H122.614V10.2485H126.071L126.074 10.2452Z" fill="white"/>
<path d="M130.421 6.64398C130.421 6.0449 130.627 5.5367 131.037 5.1261C131.447 4.71214 131.934 4.50684 132.497 4.50684C133.094 4.50684 133.597 4.71214 133.997 5.1261C134.401 5.54007 134.601 6.0449 134.601 6.64398C134.601 7.20603 134.401 7.69404 133.997 8.10801C133.594 8.52198 133.094 8.72728 132.497 8.72728C131.937 8.72728 131.451 8.52198 131.037 8.10801C130.624 7.69404 130.421 7.20603 130.421 6.64398ZM134.211 10.2452V24.034H130.754V10.2452H134.211Z" fill="white"/>
<path d="M135.801 17.1682C135.801 16.1922 135.957 15.2834 136.274 14.4387C136.591 13.5939 137.021 12.8569 137.571 12.2309C138.117 11.6015 138.764 11.1068 139.507 10.7399C140.251 10.3731 141.051 10.1913 141.904 10.1913C142.757 10.1913 143.501 10.3596 144.191 10.6961C144.877 11.0327 145.481 11.5039 146.004 12.103V6.33435H149.487V24.034H146.004V22.2065C145.484 22.8055 144.881 23.27 144.191 23.5998C143.504 23.9296 142.741 24.0912 141.904 24.0912C141.067 24.0912 140.251 23.9095 139.507 23.5426C138.764 23.1758 138.117 22.6844 137.571 22.0651C137.024 21.4458 136.591 20.7155 136.274 19.8707C135.957 19.026 135.801 18.1274 135.801 17.1682ZM139.284 17.1682C139.284 17.636 139.367 18.0769 139.534 18.4909C139.701 18.9048 139.937 19.2649 140.244 19.5746C140.551 19.8842 140.904 20.1265 141.304 20.3049C141.704 20.4833 142.144 20.5708 142.627 20.5708C143.054 20.5708 143.464 20.4967 143.854 20.3453C144.244 20.1938 144.587 19.9852 144.884 19.7126C145.181 19.4399 145.427 19.1269 145.624 18.7702C145.817 18.4134 145.944 18.0197 146.001 17.5889V16.7441C145.944 16.3301 145.821 15.9364 145.624 15.5628C145.427 15.1892 145.181 14.8695 144.884 14.607C144.587 14.3444 144.244 14.1324 143.854 13.9742C143.464 13.816 143.054 13.7353 142.627 13.7353C142.144 13.7353 141.704 13.8261 141.304 14.0012C140.904 14.1795 140.551 14.4219 140.244 14.7315C139.937 15.0411 139.701 15.408 139.534 15.8287C139.367 16.2494 139.284 16.697 139.284 17.1648V17.1682Z" fill="white"/>
<path d="M157.847 24.0912C156.881 24.0912 155.984 23.9095 155.157 23.5426C154.331 23.1758 153.611 22.6844 152.997 22.0651C152.384 21.4458 151.901 20.7155 151.547 19.8707C151.194 19.026 151.017 18.1274 151.017 17.1682C151.017 16.209 151.194 15.2834 151.547 14.4387C151.901 13.5939 152.384 12.8569 152.997 12.2309C153.611 11.6015 154.334 11.1068 155.171 10.7399C156.007 10.3731 156.907 10.1913 157.874 10.1913H164.674V13.3987L162.501 13.3146C163.281 13.7656 163.851 14.3243 164.214 14.9906C164.577 15.657 164.777 16.347 164.814 17.0605C164.851 17.6057 164.801 18.1678 164.661 18.75C164.521 19.3322 164.297 19.901 163.991 20.453C163.684 21.0083 163.304 21.5098 162.847 21.9574C162.391 22.4084 161.857 22.7652 161.244 23.0277C161.561 23.1959 161.831 23.4248 162.051 23.7176C162.274 24.0104 162.444 24.3369 162.567 24.7037C162.687 25.0706 162.761 25.4509 162.791 25.8447C162.817 26.2384 162.787 26.6053 162.694 26.9418C162.434 27.8606 161.894 28.6213 161.077 29.2203C160.261 29.8194 159.191 30.1223 157.871 30.1223C157.201 30.1223 156.571 30.0415 155.974 29.8834C155.377 29.7252 154.854 29.4627 154.401 29.0958C153.944 28.729 153.584 28.241 153.314 27.6318C153.044 27.0226 152.911 26.2687 152.911 25.3667H156.424C156.424 25.7807 156.577 26.1072 156.884 26.3529C157.191 26.5952 157.521 26.7197 157.874 26.7197C158.301 26.7197 158.644 26.5817 158.904 26.3125C159.164 26.0399 159.294 25.7269 159.294 25.3701C159.294 24.9932 159.167 24.6903 158.917 24.4547C158.667 24.2191 158.307 24.1013 157.844 24.1013L157.847 24.0912ZM161.247 17.1682C161.247 16.7004 161.157 16.2527 160.984 15.832C160.807 15.4113 160.567 15.0445 160.261 14.7349C159.954 14.4252 159.597 14.1829 159.187 14.0045C158.777 13.8261 158.341 13.7386 157.877 13.7386C157.414 13.7386 156.981 13.8295 156.581 14.0045C156.181 14.1829 155.827 14.4252 155.521 14.7349C155.214 15.0445 154.974 15.4113 154.797 15.832C154.621 16.2527 154.534 16.7004 154.534 17.1682C154.534 17.636 154.621 18.0769 154.797 18.4909C154.974 18.9048 155.214 19.2649 155.521 19.5746C155.827 19.8842 156.181 20.1265 156.581 20.3049C156.981 20.4833 157.411 20.5708 157.877 20.5708C158.344 20.5708 158.777 20.4833 159.187 20.3049C159.597 20.1265 159.954 19.8842 160.261 19.5746C160.567 19.2649 160.807 18.9048 160.984 18.4909C161.161 18.0769 161.247 17.636 161.247 17.1682Z" fill="white"/>
<path d="M179.167 20.6852C178.331 21.9237 177.387 22.7988 176.337 23.3171C175.287 23.832 174.157 24.0912 172.951 24.0912C172.004 24.0912 171.111 23.9095 170.274 23.5426C169.437 23.1758 168.714 22.6844 168.101 22.0651C167.487 21.4458 167.001 20.7155 166.637 19.8707C166.274 19.026 166.094 18.1274 166.094 17.1682C166.094 16.209 166.274 15.2834 166.637 14.4387C167.001 13.5939 167.487 12.8569 168.101 12.2309C168.714 11.6015 169.437 11.1068 170.274 10.7399C171.111 10.3731 172.001 10.1913 172.951 10.1913C174.157 10.1913 175.314 10.4673 176.421 11.0226C177.527 11.5779 178.497 12.5203 179.334 13.8497L171.947 20.4631C172.134 20.5573 172.404 20.6213 172.754 20.6583C173.107 20.6953 173.461 20.6684 173.814 20.5742C174.391 20.4227 174.937 20.1669 175.457 19.8001C175.977 19.4332 176.434 18.9688 176.824 18.4067L179.164 20.6852H179.167ZM169.414 16.6331C169.321 17.1211 169.327 17.5653 169.427 17.9692C169.531 18.3731 169.684 18.676 169.887 18.8846L174.794 14.2132C174.554 14.0079 174.231 13.8329 173.834 13.6915C173.434 13.5502 172.984 13.5098 172.484 13.5636C171.667 13.6747 170.987 13.9944 170.451 14.5195C169.911 15.0445 169.567 15.7479 169.421 16.6297L169.414 16.6331Z" fill="white"/>
</svg>
