<?xml version="1.0" encoding="utf-8"?>
<!-- Generator: Adobe Illustrator 24.3.0, SVG Export Plug-In . SVG Version: 6.00 Build 0)  -->
<svg version="1.1" id="Layer_1" xmlns="http://www.w3.org/2000/svg" xmlns:xlink="http://www.w3.org/1999/xlink" x="0px" y="0px"
	 viewBox="0 0 48 48" style="enable-background:new 0 0 48 48;" xml:space="preserve">
<g>
	<path d="M13.1,26.6h9.5v18.5C17.1,40.4,13.7,33.7,13.1,26.6z M2.6,26.6h7.9c0.6,6.6,3.3,12.9,7.8,17.8C13,43,8.2,39.6,5.3,34.6
		C3.9,32.1,3,29.4,2.6,26.6z M18.4,3.6c-5.1,5.6-8,12.8-8,20.5c0,0.1,0,0.1,0,0.2h-8c0-3.7,0.9-7.5,2.9-10.8C8.2,8.4,13,5,18.4,3.6z
		 M22.6,2.9v21.2h-9.7c0-0.1,0-0.1,0-0.2C12.9,15.9,16.5,8.2,22.6,2.9z M23.8,0.3c0,0-0.1,0-0.1,0c-8.5,0-16.3,4.5-20.5,11.8
		c-4.3,7.3-4.3,16.4,0,23.7c4.2,7.3,12.1,11.8,20.6,11.8c0,0,0.1,0,0.1,0c7,0,13.6-3,18.1-8.3c0.5-0.5,0.4-1.3-0.1-1.8
		c-0.5-0.5-1.3-0.4-1.8,0.2c-2.9,3.4-6.7,5.7-11,6.8c1.9-2,3.5-4.3,4.8-6.7c0.7-1.4-1.4-2.5-2.2-1.1c-1.7,3.2-3.9,6-6.6,8.3V26.6
		h2.7c0.7,0,1.2-0.6,1.2-1.2c0-0.7-0.6-1.2-1.2-1.2h-2.7V2.8c3.4,2.9,6,6.5,7.7,10.6c0.2,0.6,1,1,1.6,0.7c0.6-0.3,0.9-1,0.7-1.6
		c-1.4-3.4-3.3-6.4-5.8-9.1c6.6,1.7,12.1,6.5,14.6,13c0.2,0.7,1,1,1.6,0.8c0.7-0.2,1-1,0.7-1.6C42.6,6.4,33.7,0.3,23.8,0.3z"/>
	<path d="M34.9,18c0.1,0,0.2,0,0.3,0.1l9.8,5.7l-3.8,0.8c-0.8,0.2-1.2,1.1-0.8,1.8l2.7,4.7c0.1,0.2,0.1,0.4-0.1,0.6l-1.8,1
		c-0.2,0.1-0.4,0.1-0.6-0.2l-2.7-4.7c-0.4-0.7-1.4-0.8-2-0.2l-2.6,2.9l-0.1-11.3c0-0.3,0.2-0.7,0.7-0.9c0,0,0,0,0,0c0,0,0,0,0,0
		C34.3,18.1,34.7,18,34.9,18z M35,15.6c-2,0-4.1,1.6-4.2,3.7l0.1,11.4c0,1.1,0.3,2.1,1.2,2.6c0.9,0.5,2.1,0.1,2.7-0.6l1.8-2.1
		l1.9,3.2c0.8,1.4,2.6,1.8,3.9,1.1l1.8-1c1.4-0.8,1.8-2.6,1.1-3.9l-1.9-3.2l2.7-0.6c0.9-0.2,1.8-1,1.8-2c0-1-0.7-1.8-1.7-2.4
		L36.5,16v0C36,15.8,35.6,15.6,35,15.6z"/>
</g>
</svg>
