<?xml version="1.0" encoding="utf-8"?>
<!-- Generator: Adobe Illustrator 24.3.0, SVG Export Plug-In . SVG Version: 6.00 Build 0)  -->
<svg version="1.1" id="Layer_1" xmlns="http://www.w3.org/2000/svg" xmlns:xlink="http://www.w3.org/1999/xlink" x="0px" y="0px"
	 viewBox="0 0 48 48" style="enable-background:new 0 0 48 48;" xml:space="preserve">
<path d="M46.5,21.7c0.9,0,1.5-0.7,1.5-1.5s-0.7-1.5-1.5-1.5H34.8V17c0-4.9-3.3-9.3-8.1-10.5l-1.2-0.3V1.5C25.5,0.7,24.9,0,24,0
	s-1.5,0.7-1.5,1.5v4.7l-1.2,0.3c-4.8,1.2-8.1,5.6-8.1,10.5v1.5H1.5c-0.9,0-1.5,0.7-1.5,1.5s0.7,1.5,1.5,1.5h2.3v23.2H1.5
	c-0.9,0-1.5,0.7-1.5,1.5S0.7,48,1.5,48h44.9c0.9,0,1.5-0.7,1.5-1.5s-0.7-1.5-1.5-1.5h-2.3V21.7H46.5z M16.3,44.9H7V21.7h9.3V44.9z
	 M16.3,17c0-4.3,3.5-7.7,7.7-7.7s7.7,3.5,7.7,7.7v1.5H16.3V17z M28.6,44.9h-9.3V21.7h9.3V44.9z M41,44.9h-9.3V21.7H41V44.9z"/>
</svg>
