<?xml version="1.0" encoding="utf-8"?>
<!-- Generator: Adobe Illustrator 24.3.0, SVG Export Plug-In . SVG Version: 6.00 Build 0)  -->
<svg version="1.1" id="Layer_1" xmlns="http://www.w3.org/2000/svg" xmlns:xlink="http://www.w3.org/1999/xlink" x="0px" y="0px"
	 viewBox="0 0 48 48" style="enable-background:new 0 0 48 48;" xml:space="preserve">
<path d="M53.2,17.6v0.9l0,0C53.2,18.2,53.2,17.9,53.2,17.6z"/>
<path d="M20.4,46.9c0-1.7-0.4-3.4-1.3-4.9l0,0c-0.8-1.5-2.1-2.8-3.5-3.7l-1.2-0.8l0.9-1.1c1.1-1.2,1.7-2.8,1.7-4.4
	c0-1.8-0.7-3.5-2-4.8s-3-2-4.8-2s-3.5,0.7-4.8,2s-2,3-2,4.8c0,1.6,0.6,3.2,1.7,4.4L6,37.6l-1.2,0.8c-1.5,0.9-2.7,2.2-3.5,3.7
	C0.4,43.5,0,45.2,0,46.9c0,0.3,0.1,0.6,0.3,0.8c0.4,0.4,1.1,0.4,1.5,0c0.2-0.2,0.3-0.5,0.3-0.8c0-2.1,0.8-4.2,2.4-5.7
	c1.5-1.5,3.5-2.4,5.7-2.4c2.1,0,4.2,0.8,5.7,2.4c1.5,1.5,2.4,3.5,2.4,5.7c0,0.3,0.1,0.6,0.3,0.8c0.4,0.4,1.1,0.4,1.5,0
	C20.2,47.5,20.4,47.2,20.4,46.9z M10.2,36.8c-0.9,0-1.8-0.3-2.6-0.8s-1.4-1.2-1.7-2.1c-0.4-0.8-0.4-1.8-0.3-2.7
	c0.2-0.9,0.6-1.7,1.3-2.4c0.7-0.6,1.5-1.1,2.4-1.3c0.9-0.2,1.8-0.1,2.7,0.3c0.8,0.4,1.6,0.9,2.1,1.7c0.5,0.8,0.8,1.7,0.8,2.6
	c0,1.2-0.5,2.4-1.4,3.3C12.6,36.3,11.4,36.8,10.2,36.8z"/>
<path d="M48,46.8c0-1.7-0.4-3.4-1.3-4.9l0,0c-0.8-1.5-2.1-2.8-3.5-3.7L42,37.5l0.9-1.1c1.1-1.2,1.7-2.8,1.7-4.4c0-1.8-0.7-3.5-2-4.8
	s-3-2-4.8-2s-3.5,0.7-4.8,2s-2,3-2,4.8c0,1.6,0.6,3.2,1.7,4.4l0.9,1.1l-1.2,0.8c-1.5,0.9-2.7,2.2-3.5,3.7s-1.3,3.2-1.3,4.9
	c0,0.3,0.1,0.6,0.3,0.8c0.4,0.4,1.1,0.4,1.5,0c0.2-0.2,0.3-0.5,0.3-0.8c0-2.1,0.8-4.2,2.4-5.7c1.5-1.5,3.5-2.4,5.7-2.4
	c2.1,0,4.2,0.8,5.7,2.4c1.5,1.5,2.4,3.5,2.4,5.7c0,0.3,0.1,0.6,0.3,0.8c0.4,0.4,1.1,0.4,1.5,0C47.9,47.4,48,47.1,48,46.8z
	 M37.8,36.6c-0.9,0-1.8-0.3-2.6-0.8s-1.4-1.2-1.7-2.1c-0.4-0.8-0.4-1.8-0.3-2.7c0.2-0.9,0.6-1.7,1.3-2.4c0.7-0.6,1.5-1.1,2.4-1.3
	c0.9-0.2,1.8-0.1,2.7,0.3c0.8,0.4,1.6,0.9,2.1,1.7c0.5,0.8,0.8,1.7,0.8,2.6c0,1.2-0.5,2.4-1.4,3.3S39.1,36.6,37.8,36.6z"/>
<path d="M42.8,18.8c0,0.1,0,0.3,0,0.4c0,0.6-0.5,1-1.1,1l0,0c-0.6,0-1.1-0.5-1.1-1.1c0-0.1,0-0.2,0-0.4C40.6,9.5,33.1,2,23.9,2
	c-8.8,0-16,6.8-16.7,15.4v1.1l2.7-2.7c0.2-0.2,0.5-0.3,0.8-0.3s0.5,0.1,0.8,0.3c0.2,0.2,0.3,0.5,0.3,0.8s-0.1,0.6-0.3,0.8L7,21.9
	c-0.2,0.2-0.5,0.3-0.8,0.3s-0.6-0.1-0.8-0.3L1,17.3c-0.1-0.1-0.2-0.2-0.2-0.3c-0.1-0.1-0.1-0.3-0.1-0.4l0,0c0-0.1,0-0.3,0.1-0.4
	c0-0.2,0-0.3,0.2-0.4c0.1-0.1,0.2-0.2,0.3-0.2c0.1-0.1,0.3-0.1,0.4-0.1s0.3,0,0.4,0.1c0.1,0,0.2,0.1,0.3,0.2l2.7,2.7l0,0v-0.9
	c0.1-1.8,0.5-3.6,1.1-5.2C8.9,5.2,15.9,0,24,0C34.4,0,42.8,8.5,42.8,18.8z"/>
<path d="M42.8,18.8c0,0.1,0,0.3,0,0.4c0,0.6-0.5,1-1.1,1l0,0c-0.6,0-1.1-0.5-1.1-1.1c0-0.1,0-0.2,0-0.4C40.6,9.5,33.1,2,23.9,2
	c-8.8,0-16,6.8-16.7,15.4v1.1l2.7-2.7c0.2-0.2,0.5-0.3,0.8-0.3s0.5,0.1,0.8,0.3c0.2,0.2,0.3,0.5,0.3,0.8s-0.1,0.6-0.3,0.8L7,21.9
	c-0.2,0.2-0.5,0.3-0.8,0.3s-0.6-0.1-0.8-0.3L1,17.3c-0.1-0.1-0.2-0.2-0.2-0.3c-0.1-0.1-0.1-0.3-0.1-0.4l0,0c0-0.1,0-0.3,0.1-0.4
	c0-0.2,0-0.3,0.2-0.4c0.1-0.1,0.2-0.2,0.3-0.2c0.1-0.1,0.3-0.1,0.4-0.1s0.3,0,0.4,0.1c0.1,0,0.2,0.1,0.3,0.2l2.7,2.7l0,0v-0.9
	c0.1-1.8,0.5-3.6,1.1-5.2C8.9,5.2,15.9,0,24,0C34.4,0,42.8,8.5,42.8,18.8z"/>
<path d="M33,17.2l-4.7-4.7c-0.2-0.2-0.5-0.3-0.8-0.3l0,0c-0.3,0-0.6,0.1-0.8,0.3c-0.2,0.2-0.3,0.5-0.3,0.8s0.1,0.6,0.3,0.8l2.9,2.9
	H17.8c-0.6,0-1.2,0.5-1.2,1.2l0,0c0,0.6,0.5,1.2,1.2,1.2h11.7l-2.9,2.9c-0.1,0.1-0.2,0.2-0.2,0.3c-0.1,0.1-0.1,0.2-0.1,0.5
	c0,0.1,0,0.3,0.1,0.5c0,0.1,0.1,0.2,0.2,0.3c0.1,0.1,0.2,0.2,0.3,0.2c0.1,0,0.2,0.1,0.5,0.1l0,0c0.1,0,0.3,0,0.5-0.1
	s0.2-0.1,0.3-0.2L33,19c0.2-0.2,0.3-0.5,0.3-0.8C33.3,17.6,33.2,17.4,33,17.2z"/>
</svg>
