<?xml version="1.0" encoding="utf-8"?>
<!-- Generator: Adobe Illustrator 24.3.0, SVG Export Plug-In . SVG Version: 6.00 Build 0)  -->
<svg version="1.1" id="Layer_1" xmlns="http://www.w3.org/2000/svg" xmlns:xlink="http://www.w3.org/1999/xlink" x="0px" y="0px"
	 viewBox="0 0 48 48" style="enable-background:new 0 0 48 48;" xml:space="preserve">
<g>
	<path d="M17.8,25.8c-2,0.1-3.6,0.9-4.8,2.2c-1.2,1.3-1.9,2.9-2.4,4.5l-2.4,8.1c-0.6,2.1,0.4,4,1.9,5.3c1.5,1.3,3.5,2.1,5.6,2.1
		h16.8c2.1,0,4.1-0.8,5.6-2.1c1.5-1.3,2.5-3.3,1.9-5.3l-2.4-8.1C37,30.9,36.2,29.3,35,28c-1.2-1.3-2.8-2.1-4.8-2.2
		c-1.5-0.1-1.6,2.2-0.1,2.3c1.4,0,2.4,0.6,3.2,1.5c0.8,0.9,1.5,2.2,1.9,3.6l2.4,8.1c0.3,1.1-0.1,2.1-1.2,2.9c-1,0.9-2.7,1.5-4.1,1.5
		H15.6c-1.5,0-3.1-0.6-4.1-1.5c-1-0.9-1.5-1.9-1.2-2.9l2.4-8.1c0.4-1.4,1.1-2.7,1.9-3.6c0.8-0.9,1.8-1.4,3.2-1.5
		C19.4,28,19.3,25.8,17.8,25.8z"/>
	<path d="M22.7,25.6l0,0.2l-1.6,14.8l3,3.8l3-3.8l-1.6-14.9H22.7z"/>
	<path d="M24,2.3c4.8,0,8.7,3.9,8.7,8.7c0,2.4-1,5.1-2.6,7.2c-1.6,2-3.8,3.4-6.1,3.4c-2.3,0-4.4-1.3-6.1-3.4c-1.6-2-2.6-4.8-2.6-7.2
		C15.3,6.1,19.2,2.3,24,2.3z M24,0c-6.1,0-11,4.9-11,10.9c0,3,1.2,6.1,3.1,8.6c1.9,2.4,4.7,4.2,7.9,4.2c3.2,0,5.9-1.8,7.9-4.2
		S35,14,35,10.9C35,4.9,30.1,0,24,0z"/>
</g>
</svg>
